<svg xmlns="http://www.w3.org/2000/svg" xmlns:xlink="http://www.w3.org/1999/xlink" width="1920" zoomAndPan="magnify" viewBox="0 0 1440 809.999993" height="1080" preserveAspectRatio="xMidYMid meet" version="1.0"><defs><clipPath id="5b734847f1"><path d="M 644 215 L 1063.273438 215 L 1063.273438 604.132812 L 644 604.132812 Z M 644 215 " clip-rule="nonzero"/></clipPath><clipPath id="920f06e684"><path d="M 406.273438 210.382812 L 707 210.382812 L 707 598 L 406.273438 598 Z M 406.273438 210.382812 " clip-rule="nonzero"/></clipPath></defs><g clip-path="url(#5b734847f1)"><path fill="#fef5e4" d="M 834.535156 452.820312 C 835.28125 449.277344 836.066406 445.925781 836.761719 442.554688 C 837.320312 439.851562 837.722656 437.117188 838.28125 434.414062 C 838.820312 431.792969 839.503906 429.199219 840.066406 426.582031 C 840.507812 424.515625 840.832031 422.425781 841.257812 420.359375 C 841.667969 418.359375 842.144531 416.371094 842.578125 414.378906 C 843.011719 412.382812 843.449219 410.382812 843.859375 408.382812 C 844.28125 406.316406 844.660156 404.242188 845.089844 402.175781 C 845.53125 400.066406 846.007812 397.957031 846.472656 395.851562 C 846.929688 393.804688 847.410156 391.761719 847.847656 389.707031 C 848.164062 388.21875 848.40625 386.710938 848.714844 385.21875 C 849.25 382.644531 849.808594 380.078125 850.359375 377.507812 C 850.679688 376.023438 850.996094 374.539062 851.324219 373.058594 C 852.054688 369.753906 852.816406 366.460938 853.515625 363.152344 C 853.949219 361.082031 854.242188 358.984375 854.6875 356.921875 C 855.648438 352.476562 856.667969 348.042969 857.660156 343.609375 C 857.867188 342.691406 857.660156 342.441406 856.695312 342.417969 C 856.445312 342.410156 856.195312 342.425781 855.949219 342.414062 C 855.015625 342.363281 854.578125 342.519531 854.230469 343.691406 C 852.828125 348.433594 851.101562 353.082031 849.578125 357.789062 C 847.855469 363.097656 845.933594 368.332031 843.917969 373.535156 C 842.546875 377.074219 841.414062 380.703125 840.125 384.273438 C 838.328125 389.246094 836.46875 394.199219 834.671875 399.171875 C 833.792969 401.605469 833.035156 404.085938 832.152344 406.519531 C 830.777344 410.300781 829.304688 414.046875 827.949219 417.832031 C 826.128906 422.925781 824.40625 428.050781 822.59375 433.144531 C 820.511719 438.992188 818.375 444.824219 816.261719 450.660156 C 814.148438 456.5 812.042969 462.339844 809.917969 468.175781 C 808.027344 473.359375 806.085938 478.523438 804.210938 483.714844 C 802.355469 488.851562 800.570312 494.015625 798.726562 499.15625 C 796.628906 505.003906 794.558594 510.855469 792.375 516.667969 C 790.050781 522.859375 787.84375 529.089844 785.625 535.320312 C 783.546875 541.167969 781.375 546.988281 779.289062 552.835938 C 777.199219 558.683594 774.976562 564.480469 772.964844 570.355469 C 771.15625 575.628906 769.066406 580.800781 767.164062 586.039062 C 765.574219 590.421875 764.09375 594.839844 762.519531 599.222656 C 762.3125 599.800781 761.972656 600.207031 761.085938 600.195312 C 754.1875 600.117188 747.289062 600.152344 740.386719 600.152344 C 739.953125 600.152344 739.449219 600.011719 739.097656 600.179688 C 738.222656 600.597656 737.875 600.355469 737.941406 599.453125 C 738.035156 598.132812 738.15625 596.816406 738.3125 595.503906 C 738.460938 594.25 738.121094 593.011719 738.605469 591.714844 C 738.972656 590.730469 738.5625 589.488281 738.699219 588.386719 C 739.0625 585.449219 738.761719 582.464844 739.421875 579.554688 C 739.449219 579.4375 739.421875 579.304688 739.425781 579.183594 C 739.546875 575.9375 739.660156 572.695312 739.800781 569.453125 C 739.902344 567.203125 739.828125 564.914062 740.242188 562.722656 C 740.5625 561.007812 740.296875 559.308594 740.574219 557.644531 C 740.960938 555.335938 740.652344 552.988281 741 550.722656 C 741.234375 549.195312 741.195312 547.707031 741.285156 546.199219 C 741.425781 543.765625 741.320312 541.292969 741.734375 538.910156 C 742.042969 537.132812 741.929688 535.394531 742.035156 533.640625 C 742.164062 531.394531 742.066406 529.105469 742.480469 526.910156 C 742.792969 525.257812 742.535156 523.621094 742.816406 522.023438 C 743.199219 519.835938 742.878906 517.609375 743.230469 515.46875 C 743.539062 513.570312 743.253906 511.679688 743.570312 509.839844 C 743.9375 507.707031 743.613281 505.542969 743.976562 503.472656 C 744.285156 501.695312 744.167969 499.957031 744.269531 498.203125 C 744.402344 495.957031 744.300781 493.664062 744.71875 491.472656 C 745.042969 489.757812 744.769531 488.058594 745.050781 486.398438 C 745.4375 484.085938 745.125 481.738281 745.476562 479.472656 C 745.710938 477.949219 745.671875 476.457031 745.761719 474.953125 C 745.902344 472.519531 745.800781 470.046875 746.210938 467.660156 C 746.503906 465.945312 746.261719 464.246094 746.546875 462.585938 C 746.925781 460.398438 746.609375 458.171875 746.964844 456.035156 C 747.25 454.320312 747.148438 452.644531 747.253906 450.953125 C 747.394531 448.707031 747.292969 446.417969 747.695312 444.21875 C 748.03125 442.386719 747.75 440.558594 748.042969 438.773438 C 748.398438 436.585938 748.101562 434.359375 748.457031 432.222656 C 748.75 430.445312 748.640625 428.707031 748.746094 426.957031 C 748.878906 424.707031 748.769531 422.414062 749.195312 420.222656 C 749.527344 418.507812 749.191406 416.796875 749.535156 415.152344 C 750.058594 412.652344 749.453125 410.074219 750.238281 407.617188 C 750.273438 407.503906 750.238281 407.371094 750.242188 407.246094 C 750.363281 404.003906 750.476562 400.757812 750.617188 397.515625 C 750.71875 395.269531 750.644531 392.980469 751.058594 390.785156 C 751.378906 389.070312 751.117188 387.371094 751.390625 385.710938 C 751.773438 383.398438 751.464844 381.050781 751.816406 378.785156 C 752.0625 377.199219 752.007812 375.644531 752.101562 374.078125 C 752.242188 371.707031 752.144531 369.296875 752.546875 366.972656 C 752.851562 365.199219 752.578125 363.425781 752.894531 361.714844 C 753.28125 359.644531 752.945312 357.546875 753.292969 355.53125 C 753.625 353.574219 753.273438 351.597656 753.660156 349.71875 C 754.109375 347.542969 753.71875 345.355469 754.097656 343.203125 C 754.132812 343.003906 754.050781 342.648438 753.90625 342.566406 C 752.519531 341.789062 750.878906 342.710938 750.59375 344.261719 C 750.195312 346.441406 749.625 348.589844 749.179688 350.757812 C 748.753906 352.828125 748.46875 354.925781 747.988281 356.980469 C 746.949219 361.410156 746.222656 365.902344 745.058594 370.304688 C 744.351562 372.964844 744.078125 375.738281 743.511719 378.441406 C 742.960938 381.054688 742.226562 383.636719 741.679688 386.25 C 741.109375 388.953125 740.714844 391.691406 740.15625 394.394531 C 739.617188 397.015625 738.933594 399.609375 738.371094 402.226562 C 737.929688 404.292969 737.601562 406.382812 737.179688 408.449219 C 736.769531 410.449219 736.292969 412.433594 735.859375 414.429688 C 735.421875 416.425781 734.988281 418.421875 734.578125 420.425781 C 734.15625 422.492188 733.777344 424.566406 733.347656 426.628906 C 732.90625 428.742188 732.429688 430.847656 731.964844 432.957031 C 731.507812 435.003906 731.027344 437.046875 730.585938 439.097656 C 730.15625 441.101562 729.777344 443.113281 729.347656 445.113281 C 728.898438 447.222656 728.394531 449.320312 727.953125 451.433594 C 727.640625 452.925781 727.410156 454.4375 727.113281 455.9375 C 726.703125 458 726.265625 460.058594 725.835938 462.121094 C 725.394531 464.238281 724.953125 466.355469 724.503906 468.46875 C 724.074219 470.464844 723.632812 472.460938 723.199219 474.453125 C 722.761719 476.449219 722.304688 478.441406 721.902344 480.441406 C 721.496094 482.457031 721.179688 484.492188 720.765625 486.503906 C 720.308594 488.730469 719.78125 490.941406 719.28125 493.160156 C 718.832031 495.148438 718.359375 497.132812 717.929688 499.125 C 717.609375 500.613281 717.339844 502.113281 717.042969 503.609375 C 716.636719 505.675781 716.246094 507.75 715.808594 509.8125 C 715.375 511.863281 714.890625 513.90625 714.433594 515.953125 C 713.96875 518.0625 713.492188 520.167969 713.050781 522.28125 C 712.621094 524.34375 712.257812 526.421875 711.816406 528.484375 C 711.378906 530.535156 710.851562 532.566406 710.417969 534.617188 C 709.980469 536.679688 709.617188 538.761719 709.210938 540.832031 C 708.828125 542.785156 708.445312 544.738281 708.03125 546.683594 C 707.703125 548.222656 707.320312 549.746094 706.976562 551.28125 C 706.488281 553.441406 705.984375 555.601562 705.539062 557.769531 C 705.113281 559.839844 704.78125 561.929688 704.355469 563.996094 C 703.945312 565.996094 703.457031 567.976562 703.03125 569.972656 C 702.585938 572.03125 702.175781 574.097656 701.753906 576.160156 C 701.339844 578.164062 700.945312 580.171875 700.515625 582.175781 C 700.074219 584.226562 699.597656 586.269531 699.140625 588.316406 C 698.675781 590.425781 698.199219 592.53125 697.757812 594.644531 C 697.445312 596.136719 697.128906 597.632812 696.925781 599.140625 C 696.816406 599.945312 696.449219 600.191406 695.722656 600.15625 C 695.351562 600.136719 694.976562 600.152344 694.605469 600.152344 C 678.816406 600.152344 663.027344 600.148438 647.238281 600.164062 C 646.597656 600.167969 645.953125 600.347656 645.3125 600.460938 C 644.734375 600.5625 644.210938 600.113281 644.351562 599.5625 C 644.945312 597.203125 645.640625 594.863281 646.15625 592.484375 C 646.742188 589.789062 647.109375 587.042969 647.683594 584.34375 C 648.351562 581.21875 649.179688 578.125 649.867188 575 C 650.320312 572.933594 650.625 570.835938 651.03125 568.761719 C 651.761719 565.027344 652.390625 561.269531 653.296875 557.574219 C 654.285156 553.542969 655.113281 549.488281 655.902344 545.414062 C 656.507812 542.277344 657.421875 539.199219 658.09375 536.074219 C 658.675781 533.375 659.042969 530.632812 659.621094 527.933594 C 660.292969 524.808594 661.152344 521.722656 661.824219 518.597656 C 662.40625 515.898438 662.785156 513.160156 663.347656 510.457031 C 663.988281 507.378906 664.75 504.324219 665.433594 501.253906 C 665.761719 499.769531 666.011719 498.265625 666.320312 496.773438 C 666.851562 494.199219 667.402344 491.625 667.945312 489.054688 C 668.269531 487.511719 668.597656 485.96875 668.929688 484.425781 C 669.480469 481.855469 670.023438 479.285156 670.582031 476.71875 C 671.015625 474.726562 671.46875 472.734375 671.914062 470.742188 C 672.394531 468.578125 672.894531 466.421875 673.34375 464.25 C 673.769531 462.183594 674.121094 460.097656 674.527344 458.027344 C 674.910156 456.074219 675.308594 454.125 675.726562 452.183594 C 676.179688 450.074219 676.667969 447.972656 677.132812 445.867188 C 677.589844 443.816406 678.046875 441.765625 678.488281 439.714844 C 678.917969 437.714844 679.320312 435.707031 679.746094 433.707031 C 680.199219 431.597656 680.683594 429.492188 681.125 427.378906 C 681.433594 425.886719 681.679688 424.378906 681.988281 422.886719 C 682.523438 420.3125 683.078125 417.746094 683.636719 415.175781 C 684.070312 413.183594 684.523438 411.195312 684.96875 409.203125 C 685.449219 407.039062 685.949219 404.878906 686.394531 402.707031 C 686.820312 400.640625 687.160156 398.554688 687.585938 396.484375 C 687.996094 394.484375 688.476562 392.5 688.90625 390.507812 C 689.347656 388.449219 689.765625 386.386719 690.1875 384.324219 C 690.601562 382.320312 690.988281 380.308594 691.417969 378.304688 C 691.859375 376.253906 692.34375 374.214844 692.796875 372.164062 C 693.265625 370.058594 693.730469 367.949219 694.179688 365.835938 C 694.601562 363.835938 695 361.824219 695.410156 359.820312 C 695.835938 357.757812 696.257812 355.695312 696.6875 353.636719 C 697.128906 351.519531 697.570312 349.402344 698.023438 347.289062 C 698.449219 345.289062 698.890625 343.296875 699.324219 341.300781 C 699.757812 339.304688 700.21875 337.3125 700.628906 335.3125 C 701.050781 333.246094 701.410156 331.164062 701.835938 329.097656 C 702.28125 326.925781 702.777344 324.765625 703.242188 322.597656 C 703.65625 320.652344 704.050781 318.707031 704.46875 316.761719 C 704.921875 314.652344 705.386719 312.546875 705.855469 310.4375 C 706.3125 308.390625 706.789062 306.347656 707.230469 304.292969 C 707.660156 302.292969 708.042969 300.28125 708.46875 298.28125 C 708.921875 296.167969 709.425781 294.070312 709.867188 291.960938 C 710.296875 289.894531 710.65625 287.8125 711.082031 285.746094 C 711.492188 283.746094 711.941406 281.753906 712.378906 279.757812 C 712.8125 277.761719 713.273438 275.773438 713.683594 273.773438 C 714.105469 271.707031 714.464844 269.625 714.886719 267.554688 C 715.335938 265.382812 715.832031 263.222656 716.296875 261.054688 C 716.710938 259.113281 717.105469 257.164062 717.523438 255.222656 C 717.976562 253.109375 718.441406 251.003906 718.910156 248.898438 C 719.367188 246.847656 719.84375 244.804688 720.285156 242.753906 C 720.714844 240.75 721.097656 238.738281 721.523438 236.738281 C 721.976562 234.628906 722.480469 232.53125 722.917969 230.417969 C 723.351562 228.351562 723.710938 226.273438 724.136719 224.207031 C 724.546875 222.207031 724.996094 220.210938 725.433594 218.21875 C 725.445312 218.164062 725.542969 218.136719 725.558594 218.082031 C 725.773438 217.363281 725.265625 216.328125 726.234375 215.96875 C 726.996094 215.683594 727.871094 215.613281 728.695312 215.613281 C 750.015625 215.59375 771.335938 215.597656 792.660156 215.597656 C 792.96875 215.597656 793.28125 215.589844 793.589844 215.601562 C 794.839844 215.636719 794.980469 215.75 794.996094 216.941406 C 795.015625 218.808594 795.234375 220.707031 794.953125 222.53125 C 794.296875 226.769531 794.898438 231.019531 794.609375 235.25 C 794.167969 241.660156 794.574219 248.09375 794.160156 254.484375 C 793.828125 259.605469 794.292969 264.726562 793.824219 269.808594 C 793.316406 275.296875 793.929688 280.800781 793.4375 286.25 C 792.96875 291.433594 793.550781 296.617188 793.078125 301.761719 C 792.570312 307.253906 793.179688 312.75 792.691406 318.203125 C 792.222656 323.511719 792.808594 328.820312 792.324219 334.085938 C 791.828125 339.515625 792.449219 344.957031 791.945312 350.34375 C 791.449219 355.652344 792.058594 360.960938 791.585938 366.226562 C 791.085938 371.78125 791.660156 377.339844 791.1875 382.855469 C 790.902344 386.175781 791.105469 389.476562 790.878906 392.777344 C 790.738281 394.792969 790.398438 396.800781 790.152344 398.808594 C 790.136719 398.933594 790.15625 399.058594 790.148438 399.183594 C 790.027344 401.679688 789.921875 404.179688 789.769531 406.671875 C 789.683594 408.117188 789.503906 409.554688 789.425781 410.996094 C 789.414062 411.253906 789.636719 411.6875 789.847656 411.761719 C 790.410156 411.957031 790.40625 411.535156 790.554688 411.074219 C 792.621094 404.726562 794.707031 398.378906 796.886719 392.066406 C 797.804688 389.410156 798.960938 386.835938 800.003906 384.222656 C 802.070312 379.046875 804.109375 373.863281 806.210938 368.703125 C 807.703125 365.03125 809.328125 361.414062 810.804688 357.738281 C 812.667969 353.101562 814.410156 348.417969 816.273438 343.777344 C 817.449219 340.847656 818.792969 337.984375 819.980469 335.058594 C 822.007812 330.054688 823.949219 325.015625 825.964844 320.007812 C 827.167969 317.023438 828.472656 314.082031 829.679688 311.101562 C 831.082031 307.640625 832.398438 304.148438 833.800781 300.6875 C 834.75 298.34375 835.8125 296.050781 836.765625 293.710938 C 837.917969 290.894531 839 288.046875 840.136719 285.222656 C 840.84375 283.464844 841.621094 281.734375 842.324219 279.976562 C 843.476562 277.097656 844.570312 274.191406 845.734375 271.316406 C 846.941406 268.335938 848.230469 265.390625 849.445312 262.410156 C 850.59375 259.59375 851.679688 256.746094 852.816406 253.925781 C 853.785156 251.527344 854.816406 249.15625 855.773438 246.757812 C 856.925781 243.875 858.003906 240.96875 859.164062 238.089844 C 860.105469 235.746094 861.148438 233.441406 862.105469 231.101562 C 863.257812 228.285156 864.382812 225.457031 865.488281 222.621094 C 866.261719 220.640625 866.949219 218.625 867.757812 216.660156 C 868 216.070312 868.441406 215.496094 869.277344 215.589844 C 869.648438 215.632812 870.023438 215.597656 870.398438 215.597656 C 933.863281 215.597656 997.332031 215.597656 1060.800781 215.617188 C 1061.550781 215.617188 1062.617188 215.148438 1062.972656 216.054688 C 1063.179688 216.582031 1062.585938 217.386719 1062.445312 218.085938 C 1061.921875 220.675781 1061.484375 223.277344 1060.929688 225.855469 C 1060.273438 228.933594 1059.519531 231.988281 1058.835938 235.054688 C 1058.507812 236.542969 1058.265625 238.050781 1057.957031 239.542969 C 1057.421875 242.117188 1056.875 244.6875 1056.324219 247.257812 C 1055.882812 249.3125 1055.417969 251.359375 1054.976562 253.414062 C 1054.539062 255.46875 1054.125 257.535156 1053.683594 259.59375 C 1053.257812 261.585938 1052.789062 263.574219 1052.367188 265.570312 C 1051.824219 268.148438 1051.332031 270.734375 1050.78125 273.308594 C 1050.34375 275.359375 1049.824219 277.390625 1049.386719 279.441406 C 1048.945312 281.503906 1048.582031 283.582031 1048.144531 285.644531 C 1047.710938 287.695312 1047.226562 289.738281 1046.769531 291.785156 C 1046.300781 293.894531 1045.828125 296 1045.386719 298.113281 C 1044.957031 300.175781 1044.578125 302.25 1044.15625 304.316406 C 1043.742188 306.320312 1043.300781 308.316406 1042.878906 310.316406 C 1042.429688 312.429688 1041.992188 314.546875 1041.546875 316.664062 C 1041.160156 318.492188 1040.773438 320.320312 1040.367188 322.144531 C 1040.027344 323.679688 1039.640625 325.203125 1039.316406 326.742188 C 1038.769531 329.316406 1038.277344 331.902344 1037.726562 334.476562 C 1037.289062 336.527344 1036.769531 338.558594 1036.332031 340.609375 C 1035.890625 342.671875 1035.527344 344.75 1035.089844 346.8125 C 1034.65625 348.863281 1034.171875 350.90625 1033.714844 352.953125 C 1033.246094 355.0625 1032.773438 357.167969 1032.332031 359.28125 C 1031.902344 361.34375 1031.535156 363.421875 1031.097656 365.484375 C 1030.5625 367.996094 1029.984375 370.492188 1029.429688 373 C 1028.988281 374.992188 1028.535156 376.984375 1028.125 378.984375 C 1027.699219 381.050781 1027.34375 383.132812 1026.917969 385.199219 C 1026.46875 387.371094 1025.972656 389.535156 1025.511719 391.703125 C 1025.09375 393.644531 1024.699219 395.59375 1024.285156 397.535156 C 1023.832031 399.644531 1023.359375 401.753906 1022.898438 403.859375 C 1022.347656 406.367188 1021.800781 408.875 1021.253906 411.386719 C 1020.804688 413.4375 1020.355469 415.488281 1019.914062 417.542969 C 1019.476562 419.601562 1019.054688 421.664062 1018.613281 423.71875 C 1018.1875 425.714844 1017.71875 427.703125 1017.308594 429.703125 C 1016.882812 431.773438 1016.53125 433.855469 1016.105469 435.921875 C 1015.660156 438.09375 1015.164062 440.253906 1014.691406 442.421875 C 1014.15625 444.871094 1013.617188 447.320312 1013.078125 449.773438 C 1012.625 451.820312 1012.164062 453.867188 1011.707031 455.917969 C 1011.242188 458.023438 1010.753906 460.128906 1010.316406 462.238281 C 1009.886719 464.304688 1009.515625 466.382812 1009.09375 468.449219 C 1008.683594 470.449219 1008.238281 472.445312 1007.804688 474.441406 C 1007.367188 476.4375 1006.910156 478.425781 1006.488281 480.421875 C 1005.945312 483 1005.449219 485.582031 1004.898438 488.15625 C 1004.460938 490.207031 1003.960938 492.246094 1003.503906 494.292969 C 1003.035156 496.402344 1002.582031 498.511719 1002.136719 500.625 C 1001.714844 502.628906 1001.316406 504.636719 1000.886719 506.636719 C 1000.4375 508.746094 999.945312 510.847656 999.503906 512.960938 C 999.074219 515.027344 998.699219 517.101562 998.277344 519.167969 C 997.773438 521.628906 997.261719 524.089844 996.722656 526.542969 C 996.398438 528.019531 996.011719 529.484375 995.671875 530.957031 C 995.164062 533.171875 994.792969 535.425781 994.148438 537.601562 C 993.269531 540.582031 992.207031 543.507812 991.183594 546.441406 C 990.65625 547.960938 990.125 549.484375 989.460938 550.949219 C 988.0625 554.039062 986.734375 557.175781 985.085938 560.132812 C 983.207031 563.496094 981.105469 566.734375 978.828125 569.863281 C 975.554688 574.359375 971.914062 578.519531 967.824219 582.246094 C 964.316406 585.445312 960.585938 588.382812 956.496094 590.867188 C 953.472656 592.703125 950.367188 594.363281 947.167969 595.828125 C 943.664062 597.429688 940.117188 598.953125 936.316406 599.808594 C 933.785156 600.378906 931.328125 601.285156 928.800781 601.898438 C 927.085938 602.316406 925.289062 602.398438 923.566406 602.785156 C 921.3125 603.289062 918.964844 603.175781 916.75 603.875 C 916.578125 603.929688 916.378906 603.871094 916.191406 603.882812 C 909.101562 604.398438 902 604.234375 894.898438 604.25 C 893.539062 604.253906 893.539062 604.207031 893.839844 602.714844 C 894.59375 598.984375 895.273438 595.238281 896.097656 591.523438 C 896.890625 587.953125 897.882812 584.421875 898.671875 580.847656 C 899.382812 577.644531 899.882812 574.394531 900.574219 571.1875 C 901.109375 568.691406 901.867188 566.242188 902.40625 563.746094 C 903.09375 560.539062 903.648438 557.300781 904.292969 554.082031 C 904.625 552.425781 905.074219 550.789062 905.382812 549.128906 C 905.496094 548.515625 905.855469 548.6875 906.179688 548.683594 C 908.789062 548.675781 911.402344 548.738281 914.011719 548.664062 C 916.847656 548.582031 919.5 547.660156 922.140625 546.695312 C 924.6875 545.765625 926.855469 544.179688 929.039062 542.667969 C 930.347656 541.765625 931.308594 540.378906 932.511719 539.308594 C 936.207031 536.023438 938.164062 531.738281 939.734375 527.1875 C 940.875 523.882812 941.5625 520.46875 942.3125 517.070312 C 943.136719 513.355469 943.777344 509.601562 944.582031 505.882812 C 945.261719 502.757812 946.117188 499.671875 946.792969 496.546875 C 947.484375 493.339844 947.996094 490.089844 948.6875 486.882812 C 949.496094 483.125 950.460938 479.40625 951.265625 475.648438 C 951.847656 472.953125 952.210938 470.207031 952.792969 467.507812 C 953.464844 464.382812 954.324219 461.296875 954.996094 458.171875 C 955.574219 455.472656 955.957031 452.734375 956.519531 450.03125 C 957.160156 446.953125 957.921875 443.898438 958.605469 440.828125 C 959.050781 438.832031 959.4375 436.824219 959.863281 434.824219 C 960.316406 432.710938 960.800781 430.609375 961.242188 428.496094 C 961.671875 426.429688 962.050781 424.355469 962.476562 422.289062 C 962.886719 420.289062 963.328125 418.292969 963.753906 416.292969 C 964.199219 414.175781 964.636719 412.058594 965.085938 409.945312 C 965.605469 407.488281 966.125 405.03125 966.65625 402.578125 C 966.988281 401.039062 967.363281 399.511719 967.691406 397.972656 C 968.238281 395.398438 968.742188 392.816406 969.296875 390.242188 C 969.734375 388.191406 970.222656 386.148438 970.675781 384.101562 C 971.144531 381.996094 971.605469 379.886719 972.058594 377.773438 C 972.476562 375.832031 972.867188 373.882812 973.292969 371.945312 C 974.015625 368.640625 974.78125 365.34375 975.476562 362.035156 C 975.914062 359.96875 976.230469 357.875 976.65625 355.804688 C 977.066406 353.808594 977.554688 351.828125 977.988281 349.835938 C 978.425781 347.835938 978.832031 345.832031 979.257812 343.832031 C 979.710938 341.71875 980.179688 339.613281 980.628906 337.5 C 981.050781 335.496094 981.445312 333.488281 981.871094 331.488281 C 982.324219 329.375 982.820312 327.277344 983.261719 325.164062 C 983.691406 323.097656 984.0625 321.023438 984.484375 318.953125 C 984.984375 316.492188 985.507812 314.035156 986.039062 311.582031 C 986.371094 310.042969 986.761719 308.519531 987.085938 306.980469 C 987.628906 304.40625 988.128906 301.820312 988.679688 299.246094 C 989.117188 297.195312 989.617188 295.160156 990.070312 293.113281 C 990.539062 291.003906 990.984375 288.890625 991.441406 286.777344 C 991.851562 284.898438 992.304688 283.027344 992.675781 281.136719 C 993.09375 279 993.28125 276.804688 993.894531 274.730469 C 994.128906 273.925781 993.828125 273.921875 993.425781 273.804688 C 993.078125 273.707031 992.683594 273.785156 992.3125 273.785156 C 972.292969 273.785156 952.277344 273.785156 932.261719 273.785156 C 930.597656 273.785156 930.335938 274.003906 930.023438 275.636719 C 929.277344 279.492188 928.585938 283.359375 927.765625 287.199219 C 927.109375 290.265625 926.234375 293.285156 925.570312 296.351562 C 924.984375 299.046875 924.613281 301.789062 924.039062 304.488281 C 923.375 307.621094 922.554688 310.71875 921.871094 313.84375 C 921.417969 315.90625 921.09375 317.996094 920.695312 320.074219 C 920.332031 321.972656 919.972656 323.871094 919.570312 325.761719 C 919.234375 327.355469 918.808594 328.929688 918.464844 330.523438 C 917.910156 333.09375 917.394531 335.671875 916.84375 338.246094 C 916.40625 340.296875 915.933594 342.34375 915.476562 344.390625 C 915.007812 346.496094 914.523438 348.601562 914.085938 350.714844 C 913.65625 352.777344 913.285156 354.855469 912.859375 356.921875 C 912.449219 358.925781 912.003906 360.917969 911.574219 362.914062 C 911.132812 364.972656 910.699219 367.027344 910.253906 369.082031 C 909.90625 370.679688 909.554688 372.273438 909.199219 373.867188 C 909.070312 374.457031 908.972656 375 909.898438 374.875 C 910.265625 374.824219 910.644531 374.867188 911.015625 374.867188 C 927.179688 374.867188 943.339844 374.867188 959.503906 374.867188 C 959.875 374.867188 960.257812 374.917969 960.621094 374.855469 C 961.417969 374.71875 961.453125 375.210938 961.34375 375.734375 C 960.742188 378.648438 960.132812 381.566406 959.484375 384.472656 C 958.761719 387.710938 957.949219 390.933594 957.265625 394.179688 C 956.695312 396.878906 956.3125 399.617188 955.742188 402.320312 C 955.195312 404.9375 954.460938 407.515625 953.910156 410.132812 C 953.34375 412.832031 952.949219 415.570312 952.386719 418.273438 C 951.847656 420.894531 951.175781 423.488281 950.59375 426.101562 C 950.171875 427.988281 949.695312 429.867188 949.464844 431.777344 C 949.347656 432.753906 948.789062 432.890625 948.128906 433.035156 C 947.714844 433.125 947.261719 433.050781 946.828125 433.050781 C 930.789062 433.050781 914.753906 433.050781 898.714844 433.050781 C 898.277344 433.050781 897.835938 433.003906 897.410156 433.074219 C 897.199219 433.109375 896.882812 433.332031 896.847656 433.515625 C 896.074219 437.367188 895.464844 441.253906 894.550781 445.070312 C 893.730469 448.480469 893.011719 451.902344 892.324219 455.335938 C 891.699219 458.472656 890.800781 461.550781 890.128906 464.675781 C 889.550781 467.375 889.183594 470.117188 888.605469 472.816406 C 887.929688 475.941406 887.070312 479.027344 886.398438 482.152344 C 885.820312 484.851562 885.441406 487.589844 884.878906 490.292969 C 884.234375 493.371094 883.476562 496.425781 882.792969 499.496094 C 882.351562 501.492188 881.960938 503.5 881.53125 505.5 C 881.082031 507.613281 880.601562 509.71875 880.15625 511.832031 C 879.730469 513.832031 879.335938 515.84375 878.921875 517.847656 C 878.5 519.910156 878.074219 521.972656 877.644531 524.03125 C 877.207031 526.148438 876.761719 528.265625 876.308594 530.378906 C 875.882812 532.375 875.445312 534.371094 875.011719 536.367188 C 874.574219 538.363281 874.117188 540.351562 873.707031 542.351562 C 873.28125 544.421875 872.925781 546.5 872.5 548.570312 C 872.054688 550.742188 871.5625 552.90625 871.089844 555.070312 C 870.554688 557.519531 870.007812 559.96875 869.472656 562.417969 C 869.136719 563.960938 868.808594 565.5 868.480469 567.042969 C 867.929688 569.613281 867.386719 572.183594 866.835938 574.753906 C 866.394531 576.808594 865.921875 578.855469 865.5 580.914062 C 865.085938 582.921875 864.742188 584.949219 864.324219 586.957031 C 863.871094 589.125 863.347656 591.277344 862.890625 593.445312 C 862.492188 595.335938 862.195312 597.253906 861.726562 599.125 C 861.601562 599.632812 861.289062 600.152344 860.40625 600.1875 C 842.371094 600.921875 824.328125 600.324219 806.289062 600.574219 C 805.519531 600.585938 804.753906 599.671875 803.988281 600.527344 C 803.851562 600.316406 803.582031 600.09375 803.601562 599.894531 C 803.703125 598.773438 803.820312 597.644531 804.039062 596.539062 C 804.46875 594.363281 804.976562 592.203125 805.441406 590.035156 C 805.859375 588.09375 806.246094 586.144531 806.664062 584.199219 C 807.117188 582.089844 807.585938 579.984375 808.054688 577.878906 C 808.511719 575.828125 808.988281 573.785156 809.425781 571.734375 C 809.859375 569.730469 810.242188 567.71875 810.667969 565.71875 C 811.121094 563.609375 811.613281 561.507812 812.0625 559.398438 C 812.367188 557.964844 812.621094 556.519531 812.90625 555.082031 C 813.414062 552.496094 813.910156 549.910156 814.449219 547.328125 C 814.769531 545.792969 815.167969 544.269531 815.511719 542.738281 C 816 540.574219 816.492188 538.414062 816.941406 536.242188 C 817.363281 534.175781 817.707031 532.089844 818.132812 530.019531 C 818.542969 528.019531 819.019531 526.035156 819.449219 524.039062 C 819.890625 521.984375 820.3125 519.921875 820.734375 517.859375 C 821.148438 515.851562 821.539062 513.84375 821.960938 511.839844 C 822.285156 510.296875 822.644531 508.765625 822.972656 507.222656 C 823.519531 504.652344 824.050781 502.078125 824.59375 499.503906 C 824.921875 497.960938 825.25 496.417969 825.585938 494.878906 C 826.042969 492.769531 826.523438 490.664062 826.964844 488.550781 C 827.394531 486.488281 827.777344 484.414062 828.199219 482.347656 C 828.609375 480.34375 829.050781 478.347656 829.472656 476.347656 C 829.917969 474.234375 830.371094 472.117188 830.804688 470 C 831.207031 468.050781 831.570312 466.09375 831.980469 464.148438 C 832.441406 461.980469 832.925781 459.816406 833.421875 457.65625 C 833.777344 456.101562 834.164062 454.558594 834.535156 452.820312 Z M 834.535156 452.820312 " fill-opacity="1" fill-rule="nonzero"/></g><g clip-path="url(#920f06e684)"><path fill="#fef5e4" d="M 612.980469 535.253906 C 612.980469 546.691406 612.980469 557.941406 612.980469 569.191406 C 612.980469 569.566406 613.015625 569.941406 612.972656 570.308594 C 612.863281 571.234375 613.425781 571.1875 613.984375 570.972656 C 615.808594 570.28125 617.644531 569.601562 619.425781 568.808594 C 622.875 567.269531 626.210938 565.515625 629.234375 563.222656 C 631.367188 561.605469 633.511719 560 635.585938 558.3125 C 637.003906 557.15625 638.308594 555.863281 639.664062 554.632812 C 639.789062 554.519531 639.925781 554.417969 640.058594 554.3125 C 640.109375 554.539062 640.265625 554.8125 640.191406 554.988281 C 639.335938 557.066406 639.128906 559.285156 638.703125 561.460938 C 638.390625 563.058594 637.945312 564.628906 637.605469 566.222656 C 637.050781 568.796875 636.546875 571.378906 636.003906 573.953125 C 635.679688 575.496094 635.316406 577.027344 634.988281 578.566406 C 634.441406 581.140625 633.917969 583.714844 633.367188 586.289062 C 633.050781 587.769531 632.683594 589.242188 632.382812 590.726562 C 632.101562 592.109375 631.917969 593.511719 631.597656 594.882812 C 631.527344 595.195312 631.089844 595.601562 630.777344 595.644531 C 628.652344 595.953125 626.511719 596.15625 624.378906 596.425781 C 621.546875 596.785156 618.71875 597.167969 615.890625 597.539062 C 615.765625 597.554688 615.640625 597.535156 615.515625 597.542969 C 607.308594 598.058594 599.085938 597.992188 590.871094 597.835938 C 588.886719 597.800781 586.871094 597.65625 584.871094 597.519531 C 582.421875 597.359375 579.96875 597.117188 577.535156 596.777344 C 574.558594 596.359375 571.605469 595.789062 568.640625 595.308594 C 566.25 594.917969 563.847656 594.59375 561.460938 594.171875 C 559.675781 593.859375 557.898438 593.5 556.144531 593.050781 C 553.457031 592.359375 550.789062 591.578125 548.117188 590.824219 C 545.058594 589.960938 541.953125 589.226562 538.953125 588.183594 C 534.503906 586.640625 530.054688 585.046875 525.746094 583.164062 C 520.214844 580.746094 514.757812 578.144531 509.390625 575.382812 C 505.628906 573.453125 502.046875 571.164062 498.4375 568.953125 C 495.007812 566.851562 491.59375 564.714844 488.265625 562.457031 C 486.007812 560.921875 483.867188 559.207031 481.746094 557.484375 C 478.617188 554.9375 475.546875 552.320312 472.46875 549.710938 C 471.261719 548.6875 470.082031 547.632812 468.933594 546.542969 C 465.9375 543.703125 462.867188 540.929688 460.011719 537.953125 C 457.332031 535.15625 454.863281 532.152344 452.34375 529.207031 C 450.503906 527.0625 448.691406 524.894531 446.9375 522.679688 C 443.492188 518.335938 440.253906 513.835938 437.324219 509.132812 C 434.625 504.800781 432.058594 500.386719 429.542969 495.945312 C 427.984375 493.191406 426.492188 490.378906 425.203125 487.488281 C 423.167969 482.929688 421.09375 478.386719 419.332031 473.695312 C 417.730469 469.433594 416.191406 465.164062 414.894531 460.804688 C 413.875 457.367188 412.832031 453.9375 411.960938 450.460938 C 410.988281 446.558594 410.140625 442.621094 409.351562 438.675781 C 408.964844 436.753906 408.863281 434.78125 408.574219 432.835938 C 408.234375 430.5625 407.835938 428.296875 407.464844 426.027344 C 407.445312 425.90625 407.46875 425.777344 407.460938 425.652344 C 407.339844 423.53125 407.386719 421.378906 407.042969 419.289062 C 406.636719 416.785156 406.996094 414.261719 406.671875 411.796875 C 405.984375 406.5625 406.386719 401.324219 406.429688 396.09375 C 406.449219 393.992188 406.605469 391.847656 406.738281 389.722656 C 406.894531 387.210938 407.175781 384.703125 407.472656 382.199219 C 407.800781 379.425781 408.054688 376.632812 408.617188 373.90625 C 409.570312 369.273438 410.460938 364.628906 411.460938 360.007812 C 413.097656 352.449219 415.605469 345.1875 417.960938 337.871094 C 419.167969 334.109375 420.859375 330.496094 422.46875 326.878906 C 424.222656 322.9375 426.003906 319 428.011719 315.191406 C 430.144531 311.144531 432.527344 307.230469 434.855469 303.289062 C 436.363281 300.734375 437.875 298.171875 439.5625 295.734375 C 441.722656 292.621094 444.027344 289.609375 446.324219 286.597656 C 448.570312 283.660156 450.867188 280.761719 453.183594 277.875 C 454.09375 276.738281 455.074219 275.65625 456.078125 274.601562 C 459.140625 271.382812 462.160156 268.125 465.324219 265.011719 C 468.023438 262.359375 470.800781 259.773438 473.722656 257.371094 C 478.277344 253.617188 482.890625 249.917969 487.65625 246.441406 C 491.28125 243.796875 495.1875 241.539062 498.960938 239.09375 C 504.648438 235.40625 510.578125 232.144531 516.714844 229.277344 C 520.664062 227.429688 524.691406 225.742188 528.746094 224.113281 C 533.613281 222.164062 538.535156 220.410156 543.535156 218.855469 C 546.460938 217.945312 549.421875 217.148438 552.382812 216.355469 C 554.851562 215.691406 557.328125 215.058594 559.820312 214.507812 C 561.886719 214.050781 563.980469 213.722656 566.0625 213.363281 C 569.027344 212.855469 571.984375 212.328125 574.957031 211.886719 C 576.445312 211.664062 578.007812 211.8125 579.453125 211.449219 C 581.394531 210.960938 583.425781 211.519531 585.3125 210.757812 C 585.472656 210.695312 585.679688 210.753906 585.867188 210.75 C 593.152344 210.625 600.4375 210.351562 607.714844 210.460938 C 610.074219 210.496094 612.464844 210.625 614.835938 210.769531 C 617.347656 210.925781 619.859375 211.191406 622.359375 211.507812 C 625.824219 211.953125 629.292969 212.429688 632.742188 213.003906 C 635.976562 213.546875 639.214844 214.125 642.40625 214.878906 C 645.957031 215.71875 649.429688 216.859375 652.976562 217.707031 C 657.199219 218.71875 661.261719 220.199219 665.363281 221.582031 C 667.808594 222.410156 670.222656 223.347656 672.613281 224.335938 C 678.035156 226.570312 683.433594 228.863281 688.601562 231.648438 C 692.933594 233.984375 697.335938 236.199219 701.433594 238.953125 C 702.492188 239.664062 703.621094 240.277344 704.699219 240.964844 C 706.359375 242.023438 706.320312 242.121094 705.871094 244.152344 C 705.304688 246.726562 704.898438 249.335938 704.351562 251.917969 C 703.796875 254.539062 703.121094 257.132812 702.558594 259.75 C 702.117188 261.816406 701.777344 263.902344 701.375 265.976562 C 701.285156 266.429688 701.105469 266.863281 701.011719 267.3125 C 700.789062 268.375 700.625 268.449219 699.695312 267.808594 C 697.277344 266.144531 694.886719 264.433594 692.4375 262.808594 C 690.007812 261.203125 687.59375 259.550781 685.042969 258.148438 C 680.496094 255.652344 675.855469 253.324219 671.25 250.941406 C 671.027344 250.824219 670.742188 250.832031 670.484375 250.78125 C 670.574219 251.039062 670.597656 251.351562 670.761719 251.542969 C 673.625 254.855469 675.933594 258.554688 678.238281 262.253906 C 680.167969 265.355469 682.023438 268.503906 683.789062 271.703125 C 685.625 275.03125 687.433594 278.390625 689.035156 281.835938 C 690.5625 285.113281 691.792969 288.523438 693.183594 291.863281 C 693.492188 292.605469 693.917969 293.300781 694.292969 294.015625 C 695.324219 295.992188 694.578125 297.921875 694.140625 299.863281 C 693.683594 301.910156 693.226562 303.964844 692.804688 306.019531 C 692.394531 308.03125 692.046875 310.054688 691.628906 312.0625 C 691.308594 313.601562 690.894531 315.117188 690.570312 316.65625 C 690.023438 319.230469 689.539062 321.820312 688.992188 324.398438 C 688.546875 326.507812 688.035156 328.601562 687.582031 330.710938 C 687.15625 332.714844 686.789062 334.730469 686.355469 336.730469 C 685.921875 338.722656 685.320312 340.679688 685 342.6875 C 684.722656 344.441406 683.933594 346.128906 684.199219 347.96875 C 684.21875 348.085938 683.929688 348.246094 683.78125 348.382812 C 683.679688 348.261719 683.511719 348.15625 683.484375 348.019531 C 682.851562 344.675781 682.347656 341.300781 681.578125 337.984375 C 680.757812 334.433594 679.71875 330.933594 678.726562 327.421875 C 678.191406 325.523438 678.15625 325.59375 676.183594 325.988281 C 674.5 326.320312 672.777344 326.453125 671.089844 326.765625 C 669.429688 327.070312 667.792969 327.523438 666.136719 327.847656 C 665.144531 328.042969 664.128906 328.113281 663.125 328.242188 C 660.171875 328.613281 657.214844 328.949219 654.269531 329.371094 C 651.136719 329.820312 648.015625 330.289062 644.851562 330.539062 C 642.46875 330.726562 640.101562 331.140625 637.695312 331.253906 C 635.246094 331.371094 632.777344 331.574219 630.367188 332.007812 C 626.910156 332.632812 623.765625 334.019531 620.878906 336.125 C 618.476562 337.871094 616.753906 340.167969 615.335938 342.601562 C 613.910156 345.046875 612.976562 347.808594 612.980469 350.753906 C 612.980469 363.929688 612.980469 377.109375 612.980469 390.289062 C 612.980469 391.640625 612.988281 391.648438 614.335938 391.648438 C 633.730469 391.652344 653.125 391.652344 672.519531 391.652344 C 672.890625 391.652344 673.273438 391.703125 673.636719 391.640625 C 674.632812 391.464844 674.683594 392.121094 674.507812 392.734375 C 673.453125 396.371094 673.027344 400.148438 671.964844 403.792969 C 671.199219 406.429688 670.925781 409.210938 670.417969 411.925781 C 670.191406 413.132812 669.976562 414.34375 669.652344 415.527344 C 669.476562 416.179688 669.230469 416.753906 668.214844 416.683594 C 666.234375 416.542969 664.238281 416.640625 662.25 416.640625 C 646.460938 416.640625 630.671875 416.640625 614.882812 416.640625 C 614.574219 416.640625 614.257812 416.679688 613.953125 416.632812 C 613.128906 416.507812 612.964844 416.878906 612.964844 417.644531 C 612.984375 431.257812 612.867188 444.871094 613.058594 458.480469 C 613.109375 461.90625 614.6875 465.078125 616.703125 467.945312 C 619.039062 471.265625 622.222656 473.492188 625.832031 475.128906 C 627.183594 475.742188 628.707031 476.101562 630.1875 476.285156 C 633.179688 476.652344 636.195312 476.800781 639.199219 477.070312 C 641.648438 477.292969 644.097656 477.503906 646.535156 477.828125 C 648.753906 478.121094 650.949219 478.570312 653.160156 478.921875 C 653.585938 478.988281 654.03125 478.925781 654.464844 478.929688 C 656.007812 478.945312 656.121094 479.019531 655.855469 480.609375 C 655.636719 481.925781 655.246094 483.214844 654.949219 484.519531 C 654.503906 486.511719 654.050781 488.503906 653.640625 490.503906 C 653.21875 492.570312 652.878906 494.65625 652.433594 496.71875 C 652.011719 498.648438 651.53125 500.566406 651.011719 502.472656 C 650.699219 503.632812 650.660156 503.5625 649.453125 503.300781 C 648.355469 503.0625 647.230469 502.929688 646.113281 502.808594 C 644.613281 502.652344 643.09375 502.644531 641.609375 502.40625 C 639.542969 502.078125 637.414062 502.328125 635.386719 501.6875 C 635.273438 501.652344 635.136719 501.6875 635.015625 501.683594 C 632.453125 501.558594 629.875 501.589844 627.34375 501.265625 C 624.960938 500.957031 622.542969 501.25 620.234375 500.851562 C 618.015625 500.464844 615.839844 500.757812 613.660156 500.554688 C 613.046875 500.5 612.964844 500.769531 612.96875 501.300781 C 612.992188 503.722656 612.980469 506.148438 612.980469 508.574219 C 612.980469 517.402344 612.980469 526.234375 612.980469 535.253906 M 569.152344 476.691406 C 569.414062 476.566406 569.660156 476.386719 569.933594 476.332031 C 570.683594 476.175781 571.464844 476.144531 572.199219 475.933594 C 576.121094 474.8125 579.589844 472.875 582.328125 469.816406 C 583.339844 468.6875 584.179688 467.378906 584.96875 466.074219 C 586.496094 463.550781 587.5625 460.792969 587.582031 457.851562 C 587.664062 444.738281 587.617188 431.625 587.617188 418.511719 C 587.617188 416.640625 587.617188 416.640625 585.835938 416.640625 C 561.90625 416.640625 537.980469 416.640625 514.054688 416.640625 C 513.679688 416.640625 513.308594 416.648438 512.933594 416.640625 C 512.128906 416.621094 511.824219 417.070312 511.910156 417.796875 C 511.980469 418.375 512.242188 418.9375 512.257812 419.507812 C 512.308594 422.011719 512.183594 424.511719 512.625 427.003906 C 512.851562 428.296875 512.804688 429.640625 512.925781 430.953125 C 513.1875 433.769531 513.410156 436.589844 513.753906 439.402344 C 513.933594 440.835938 513.839844 442.324219 514.191406 443.707031 C 514.472656 444.792969 514.382812 445.855469 514.53125 446.917969 C 514.839844 449.132812 515.28125 451.332031 515.621094 453.542969 C 515.800781 454.726562 515.8125 455.9375 516.023438 457.113281 C 516.332031 458.835938 516.746094 460.535156 517.121094 462.246094 C 517.449219 463.726562 517.777344 465.207031 518.117188 466.683594 C 518.652344 469.007812 519.164062 471.339844 519.738281 473.65625 C 520.453125 476.523438 521.21875 479.378906 521.984375 482.234375 C 522.027344 482.402344 522.253906 482.632812 522.40625 482.640625 C 523.082031 482.671875 523.777344 482.730469 524.433594 482.597656 C 525.914062 482.300781 527.359375 481.839844 528.839844 481.554688 C 531.671875 481.011719 534.511719 480.511719 537.359375 480.058594 C 539.992188 479.640625 542.640625 479.289062 545.285156 478.933594 C 548.171875 478.546875 551.0625 478.15625 553.957031 477.820312 C 556.460938 477.53125 558.96875 477.269531 561.480469 477.078125 C 563.910156 476.894531 566.347656 476.816406 569.152344 476.691406 M 556.472656 330.851562 C 556.335938 330.730469 556.203125 330.496094 556.066406 330.496094 C 553.59375 330.492188 551.167969 330.097656 548.730469 329.746094 C 546.542969 329.433594 544.304688 329.390625 542.15625 328.917969 C 541.1875 328.707031 540.210938 328.859375 539.324219 328.578125 C 537.273438 327.9375 535.136719 327.917969 533.0625 327.5 C 531.335938 327.152344 529.605469 326.835938 527.878906 326.503906 C 526.382812 326.214844 524.894531 325.898438 523.390625 325.644531 C 522.773438 325.539062 522.15625 325.597656 521.96875 326.398438 C 521.730469 327.417969 521.464844 328.429688 521.226562 329.449219 C 520.453125 332.734375 519.675781 336.019531 518.925781 339.308594 C 518.304688 342.039062 517.691406 344.773438 517.132812 347.515625 C 516.816406 349.078125 516.664062 350.671875 516.363281 352.238281 C 516.039062 353.957031 515.542969 355.648438 515.277344 357.375 C 514.941406 359.554688 514.792969 361.769531 514.5 363.957031 C 514.167969 366.480469 513.722656 368.992188 513.402344 371.515625 C 513.097656 373.953125 512.832031 376.402344 512.664062 378.851562 C 512.464844 381.714844 512.40625 384.589844 512.265625 387.460938 C 512.222656 388.347656 512.359375 389.214844 511.945312 390.125 C 511.535156 391.035156 512.070312 391.589844 513.101562 391.648438 C 513.414062 391.664062 513.726562 391.652344 514.035156 391.652344 C 537.964844 391.652344 561.894531 391.652344 585.824219 391.652344 C 586.195312 391.652344 586.574219 391.613281 586.941406 391.660156 C 587.558594 391.734375 587.644531 391.433594 587.628906 390.910156 C 587.589844 389.917969 587.496094 388.902344 587.652344 387.933594 C 587.800781 387.015625 587.5625 386.144531 587.605469 385.25 C 587.65625 384.199219 587.617188 383.140625 587.617188 382.082031 C 587.617188 380.964844 587.515625 379.832031 587.648438 378.730469 C 587.761719 377.757812 587.597656 376.820312 587.601562 375.863281 C 587.628906 367.597656 587.617188 359.332031 587.617188 351.066406 C 587.613281 348.675781 586.929688 346.441406 585.941406 344.300781 C 584.578125 341.339844 582.933594 338.566406 580.171875 336.65625 C 578.777344 335.691406 577.410156 334.660156 575.921875 333.863281 C 572.96875 332.28125 569.703125 331.867188 566.417969 331.605469 C 565.800781 331.558594 565.160156 331.6875 564.558594 331.582031 C 562.003906 331.136719 559.441406 330.839844 556.472656 330.851562 M 441.589844 346.519531 C 441.109375 347.996094 440.660156 349.484375 440.136719 350.949219 C 438.695312 354.980469 437.589844 359.109375 436.539062 363.253906 C 435.808594 366.144531 435.230469 369.0625 434.632812 371.980469 C 434.039062 374.875 433.472656 377.753906 433.191406 380.691406 C 433.085938 381.816406 432.972656 382.949219 432.757812 384.054688 C 432.316406 386.367188 432.050781 388.6875 432.066406 391.042969 C 432.070312 391.53125 432.21875 391.707031 432.699219 391.65625 C 433.003906 391.625 433.320312 391.652344 433.628906 391.652344 C 450.902344 391.652344 468.175781 391.652344 485.445312 391.652344 C 485.757812 391.652344 486.085938 391.714844 486.371094 391.628906 C 486.582031 391.566406 486.867188 391.324219 486.886719 391.136719 C 487.050781 389.703125 487.183594 388.261719 487.277344 386.820312 C 487.417969 384.699219 487.320312 382.582031 487.566406 380.441406 C 487.863281 377.886719 487.882812 375.300781 488.355469 372.738281 C 488.8125 370.269531 488.894531 367.734375 489.148438 365.226562 C 489.394531 362.78125 489.636719 360.335938 489.898438 357.894531 C 490.003906 356.890625 490.125 355.886719 490.292969 354.890625 C 490.640625 352.863281 491.042969 350.847656 491.378906 348.820312 C 491.660156 347.125 491.824219 345.410156 492.148438 343.726562 C 492.441406 342.1875 492.9375 340.6875 493.234375 339.152344 C 493.664062 336.957031 493.890625 334.71875 494.390625 332.539062 C 495.304688 328.585938 496.28125 324.640625 497.402344 320.738281 C 497.707031 319.671875 497.632812 319.480469 496.574219 319.246094 C 495.125 318.925781 493.746094 318.285156 492.328125 317.8125 C 488.449219 316.53125 484.546875 315.304688 480.683594 313.976562 C 478.242188 313.136719 475.824219 312.207031 473.441406 311.210938 C 470.105469 309.816406 466.789062 308.367188 463.511719 306.839844 C 462.96875 306.585938 462.777344 306.652344 462.460938 306.996094 C 462.207031 307.269531 461.882812 307.488281 461.679688 307.792969 C 458.09375 313.164062 454.625 318.613281 451.558594 324.292969 C 449.507812 328.082031 447.660156 331.992188 445.910156 335.929688 C 444.394531 339.335938 443.144531 342.859375 441.589844 346.519531 M 453.714844 487.695312 C 453.757812 487.863281 453.765625 488.054688 453.851562 488.199219 C 455.644531 491.121094 457.40625 494.066406 459.261719 496.949219 C 460.222656 498.4375 461.34375 499.820312 462.417969 501.234375 C 462.660156 501.554688 462.867188 501.796875 463.457031 501.503906 C 465.515625 500.488281 467.632812 499.589844 469.753906 498.707031 C 473.089844 497.3125 476.398438 495.835938 479.800781 494.628906 C 484.359375 493.007812 488.992188 491.613281 493.59375 490.121094 C 494.742188 489.746094 495.902344 489.402344 497.035156 488.980469 C 497.3125 488.878906 497.695312 488.839844 497.5 488.152344 C 496.726562 485.414062 496.136719 482.621094 495.476562 479.851562 C 494.613281 476.234375 493.660156 472.636719 492.902344 468.996094 C 492.277344 466 491.90625 462.949219 491.378906 459.929688 C 490.914062 457.273438 490.316406 454.636719 489.914062 451.96875 C 489.558594 449.605469 489.390625 447.210938 489.148438 444.828125 C 489.015625 443.511719 488.988281 442.179688 488.753906 440.886719 C 488.351562 438.640625 488 436.398438 488.027344 434.109375 C 488.03125 433.675781 488.148438 433.195312 488.007812 432.8125 C 487.210938 430.667969 487.761719 428.410156 487.371094 426.203125 C 486.882812 423.460938 487.011719 420.605469 486.921875 417.800781 C 486.894531 416.925781 486.527344 416.582031 485.691406 416.636719 C 485.320312 416.660156 484.945312 416.640625 484.570312 416.640625 C 467.984375 416.640625 451.398438 416.640625 434.8125 416.644531 C 433.949219 416.644531 433.085938 416.671875 432.222656 416.6875 C 432.175781 417.660156 432.125 418.632812 432.082031 419.609375 C 432.074219 419.734375 432.050781 419.867188 432.082031 419.980469 C 432.804688 422.445312 432.628906 425.035156 433.160156 427.539062 C 433.59375 429.574219 433.574219 431.699219 433.972656 433.742188 C 434.617188 437.054688 435.457031 440.328125 436.175781 443.628906 C 437.140625 448.042969 438.410156 452.371094 439.84375 456.648438 C 440.664062 459.097656 441.726562 461.46875 442.503906 463.933594 C 444.046875 468.832031 446.296875 473.425781 448.515625 478.027344 C 450.066406 481.246094 451.847656 484.351562 453.714844 487.695312 M 587.617188 297.097656 C 587.617188 278.148438 587.617188 259.199219 587.617188 240.25 C 587.617188 239.875 587.589844 239.5 587.625 239.132812 C 587.679688 238.515625 587.777344 237.902344 587.859375 237.289062 C 587.171875 237.394531 586.484375 237.488281 585.800781 237.613281 C 585.640625 237.640625 585.496094 237.769531 585.335938 237.832031 C 582.175781 239.070312 579.046875 240.332031 576.074219 242.039062 C 571.699219 244.550781 567.566406 247.398438 563.894531 250.796875 C 560.167969 254.246094 556.535156 257.816406 553.382812 261.863281 C 551.050781 264.863281 548.722656 267.859375 546.589844 271 C 543.429688 275.660156 540.605469 280.519531 537.980469 285.507812 C 535.328125 290.554688 532.972656 295.726562 530.75 300.96875 C 530.527344 301.496094 530.375 301.664062 531.085938 301.777344 C 532.175781 301.953125 533.234375 302.308594 534.320312 302.496094 C 538.097656 303.140625 541.867188 303.886719 545.667969 304.328125 C 548.566406 304.664062 551.449219 305.070312 554.335938 305.476562 C 556.582031 305.792969 558.84375 306.101562 561.105469 306.207031 C 563.878906 306.332031 566.625 306.625 569.375 306.953125 C 571.109375 307.164062 572.863281 307.003906 574.632812 307.289062 C 576.652344 307.613281 578.738281 307.367188 580.8125 307.667969 C 582.761719 307.949219 584.78125 307.675781 586.765625 307.753906 C 587.601562 307.785156 587.632812 307.429688 587.628906 306.789062 C 587.605469 303.683594 587.617188 300.578125 587.617188 297.097656 M 538.570312 524.0625 C 539.097656 524.964844 539.621094 525.867188 540.152344 526.765625 C 541.953125 529.808594 543.679688 532.902344 545.574219 535.890625 C 548.636719 540.707031 552.085938 545.261719 555.886719 549.5 C 558.679688 552.613281 561.878906 555.359375 564.921875 558.238281 C 567.816406 560.984375 571.125 563.144531 574.480469 565.289062 C 578.023438 567.554688 581.851562 569.109375 585.695312 570.664062 C 587.570312 571.421875 587.617188 571.308594 587.617188 569.308594 C 587.617188 546.992188 587.617188 524.675781 587.617188 502.363281 C 587.617188 501.988281 587.578125 501.613281 587.625 501.246094 C 587.699219 500.636719 587.414062 500.515625 586.882812 500.558594 C 584.699219 500.722656 582.507812 500.683594 580.316406 500.832031 C 576.199219 501.117188 572.070312 501.339844 567.949219 501.644531 C 565.492188 501.828125 563.054688 502.132812 560.609375 502.371094 C 558.164062 502.609375 555.71875 502.855469 553.273438 503.140625 C 550.5 503.46875 547.730469 503.777344 544.972656 504.269531 C 541.65625 504.867188 538.300781 505.269531 534.96875 505.796875 C 533.757812 505.984375 532.5625 506.289062 531.359375 506.527344 C 530.679688 506.664062 530.589844 506.898438 530.894531 507.585938 C 531.789062 509.574219 532.46875 511.660156 533.390625 513.636719 C 534.992188 517.078125 536.710938 520.464844 538.570312 524.0625 M 612.980469 270.613281 C 612.980469 282.421875 612.980469 294.226562 612.980469 306.035156 C 612.980469 307.726562 612.980469 307.738281 614.75 307.722656 C 617.191406 307.703125 619.617188 307.695312 622.058594 307.410156 C 625.089844 307.054688 628.164062 307.105469 631.21875 306.980469 C 631.34375 306.976562 631.5 307.03125 631.585938 306.972656 C 632.535156 306.347656 633.597656 306.710938 634.605469 306.605469 C 635.675781 306.492188 636.738281 306.332031 637.808594 306.242188 C 639.554688 306.09375 641.355469 306.183594 643.042969 305.796875 C 644.261719 305.515625 645.445312 305.640625 646.628906 305.472656 C 648.90625 305.15625 651.164062 304.699219 653.441406 304.382812 C 655.628906 304.078125 657.839844 303.929688 660.023438 303.605469 C 661.996094 303.316406 663.945312 302.886719 665.902344 302.503906 C 667.105469 302.269531 668.300781 301.96875 669.511719 301.777344 C 670.003906 301.699219 670.175781 301.585938 669.957031 301.109375 C 668.070312 296.984375 666.253906 292.820312 664.265625 288.742188 C 662.902344 285.941406 661.355469 283.226562 659.796875 280.527344 C 658.144531 277.660156 656.441406 274.816406 654.652344 272.035156 C 653.4375 270.152344 651.980469 268.429688 650.730469 266.570312 C 648.203125 262.816406 645.269531 259.398438 642.132812 256.164062 C 640.082031 254.050781 637.90625 252.050781 635.699219 250.097656 C 633.726562 248.351562 631.75 246.558594 629.558594 245.113281 C 625.945312 242.730469 622.226562 240.480469 618.167969 238.882812 C 616.78125 238.335938 615.382812 237.804688 613.976562 237.308594 C 613.410156 237.109375 612.847656 237.066406 612.972656 237.992188 C 613.019531 238.359375 612.980469 238.738281 612.980469 239.109375 C 612.980469 249.488281 612.980469 259.863281 612.980469 270.613281 M 524.207031 253.457031 C 521.683594 254.863281 519.148438 256.246094 516.636719 257.679688 C 514.222656 259.058594 511.773438 260.386719 509.449219 261.910156 C 504.757812 264.984375 500.144531 268.167969 495.796875 271.742188 C 492.4375 274.5 488.964844 277.113281 485.898438 280.207031 C 485.589844 280.515625 485.289062 280.832031 484.972656 281.128906 C 483.226562 282.753906 481.472656 284.378906 479.726562 286.003906 C 479.101562 286.585938 479.496094 286.71875 480.066406 286.921875 C 481.148438 287.304688 482.183594 287.8125 483.257812 288.214844 C 486.699219 289.511719 490.121094 290.863281 493.601562 292.039062 C 497.203125 293.257812 500.886719 294.238281 504.488281 295.460938 C 505.394531 295.769531 505.679688 295.765625 505.992188 294.832031 C 506.558594 293.148438 507.214844 291.484375 507.957031 289.871094 C 509.800781 285.851562 511.671875 281.839844 513.621094 277.867188 C 515.09375 274.867188 516.613281 271.886719 518.265625 268.984375 C 519.765625 266.355469 521.585938 263.910156 523.0625 261.269531 C 524.996094 257.808594 527.316406 254.644531 529.804688 251.578125 C 529.972656 251.367188 530.035156 251.070312 530.144531 250.816406 C 529.84375 250.886719 529.523438 250.914062 529.25 251.039062 C 527.625 251.769531 526.011719 252.523438 524.207031 253.457031 M 522.34375 546.628906 C 522.167969 546.203125 522.035156 545.753906 521.808594 545.359375 C 519.511719 541.339844 517.128906 537.367188 514.910156 533.304688 C 513.53125 530.789062 512.433594 528.121094 511.144531 525.550781 C 509.160156 521.59375 507.484375 517.503906 505.929688 513.363281 C 505.746094 512.867188 505.269531 512.621094 504.722656 512.785156 C 502.230469 513.519531 499.726562 514.207031 497.265625 515.03125 C 493.78125 516.199219 490.3125 517.433594 486.867188 518.714844 C 484.609375 519.558594 482.402344 520.535156 480.175781 521.449219 C 479.558594 521.703125 479.332031 521.921875 479.945312 522.535156 C 483.0625 525.652344 486.230469 528.707031 489.660156 531.484375 C 491.902344 533.300781 494.101562 535.164062 496.316406 537.015625 C 500.03125 540.121094 504.066406 542.773438 508.082031 545.476562 C 513.769531 549.304688 519.75 552.597656 525.835938 555.722656 C 526.964844 556.300781 528.050781 556.964844 529.183594 557.542969 C 529.414062 557.664062 529.757812 557.566406 530.050781 557.570312 C 529.914062 557.351562 529.792969 557.121094 529.640625 556.914062 C 528.703125 555.625 527.738281 554.351562 526.824219 553.046875 C 525.375 550.980469 523.960938 548.894531 522.34375 546.628906 Z M 522.34375 546.628906 " fill-opacity="1" fill-rule="nonzero"/></g></svg>