<svg xmlns="http://www.w3.org/2000/svg" xmlns:xlink="http://www.w3.org/1999/xlink" width="1920" zoomAndPan="magnify" viewBox="0 0 1440 809.999993" height="1080" preserveAspectRatio="xMidYMid meet" version="1.0"><defs><clipPath id="d3bba41da1"><path d="M 304.210938 210.65625 L 576 210.65625 L 576 598 L 304.210938 598 Z M 304.210938 210.65625 " clip-rule="nonzero"/></clipPath><clipPath id="d28b033800"><path d="M 968 227 L 1135.960938 227 L 1135.960938 407 L 968 407 Z M 968 227 " clip-rule="nonzero"/></clipPath><clipPath id="cabffd2c14"><path d="M 509 416 L 671 416 L 671 599.15625 L 509 599.15625 Z M 509 416 " clip-rule="nonzero"/></clipPath><clipPath id="87abeeca3e"><path d="M 784 416 L 947 416 L 947 599.15625 L 784 599.15625 Z M 784 416 " clip-rule="nonzero"/></clipPath><clipPath id="54ae146535"><path d="M 925 418 L 1027 418 L 1027 599.15625 L 925 599.15625 Z M 925 418 " clip-rule="nonzero"/></clipPath><clipPath id="9445a7acfb"><path d="M 997 416 L 1095 416 L 1095 599.15625 L 997 599.15625 Z M 997 416 " clip-rule="nonzero"/></clipPath><clipPath id="06186954cc"><path d="M 737 418 L 817 418 L 817 599.15625 L 737 599.15625 Z M 737 418 " clip-rule="nonzero"/></clipPath></defs><g clip-path="url(#d3bba41da1)"><path fill="#fef5e4" d="M 434.992188 220.753906 C 442.511719 218.734375 449.785156 216.523438 457.160156 214.753906 C 462 213.59375 466.976562 212.972656 471.914062 212.292969 C 475.972656 211.738281 480.058594 211.234375 484.144531 211.09375 C 492.574219 210.808594 501.023438 210.5 509.445312 210.742188 C 515.113281 210.90625 520.78125 211.816406 526.394531 212.714844 C 532.730469 213.726562 539.105469 214.738281 545.289062 216.398438 C 553.0625 218.484375 560.671875 221.191406 568.328125 223.714844 C 570.09375 224.296875 571.683594 225.523438 573.46875 225.894531 C 575.515625 226.324219 575.527344 227.625 575.269531 228.972656 C 574.378906 233.636719 573.339844 238.273438 572.347656 242.917969 C 571.859375 245.207031 571.335938 247.488281 570.867188 249.78125 C 570.660156 250.796875 570.445312 251.652344 569.078125 251.15625 C 568.867188 251.078125 568.507812 251.320312 568.269531 251.484375 C 568.207031 251.527344 568.269531 251.9375 568.386719 252.019531 C 570.839844 253.800781 569.496094 256.1875 569.128906 258.183594 C 567.988281 264.40625 566.523438 270.570312 565.199219 276.757812 C 564.511719 279.980469 563.835938 283.203125 563.183594 286.433594 C 562.992188 287.378906 562.945312 288.347656 562.753906 289.292969 C 562.679688 289.640625 562.390625 289.945312 562.199219 290.273438 C 561.984375 290.042969 561.675781 289.855469 561.570312 289.585938 C 558.011719 280.335938 552.53125 272.21875 546.421875 264.546875 C 542.800781 260.003906 538.921875 255.597656 534.691406 251.632812 C 528.210938 245.566406 520.816406 240.785156 512.28125 237.96875 C 510.847656 237.496094 510.191406 237.695312 510.191406 239.355469 C 510.210938 261.59375 510.210938 283.832031 510.183594 306.070312 C 510.183594 307.273438 510.539062 307.765625 511.769531 307.703125 C 517.789062 307.40625 523.816406 307.234375 529.828125 306.851562 C 533.714844 306.605469 537.597656 306.167969 541.457031 305.648438 C 546.792969 304.929688 552.105469 304.027344 557.441406 303.273438 C 558.167969 303.171875 558.949219 303.492188 559.707031 303.617188 C 559.515625 304.148438 559.261719 304.664062 559.140625 305.210938 C 558.179688 309.597656 557.253906 313.996094 556.296875 318.386719 C 555.640625 321.414062 554.9375 324.429688 554.285156 327.457031 C 553.980469 328.890625 553.15625 329.417969 551.683594 329.566406 C 547.582031 329.988281 543.503906 330.652344 539.410156 331.125 C 537.320312 331.367188 535.210938 331.40625 533.109375 331.550781 C 528.042969 331.890625 523.175781 332.648438 518.925781 335.898438 C 514.179688 339.53125 510.871094 344.070312 510.691406 350.039062 C 510.292969 363.316406 510.355469 376.609375 510.183594 389.894531 C 510.160156 391.433594 511.007812 391.40625 512.09375 391.402344 C 520.992188 391.386719 529.886719 391.394531 538.78125 391.394531 C 541.273438 391.394531 541.09375 391.390625 540.402344 393.8125 C 539.449219 397.152344 538.863281 400.59375 538.101562 403.988281 C 537.304688 407.5625 536.402344 411.121094 535.71875 414.71875 C 535.441406 416.195312 534.691406 416.484375 533.40625 416.476562 C 526.53125 416.449219 519.65625 416.464844 512.785156 416.464844 C 510.429688 416.464844 510.207031 416.699219 510.207031 419.125 C 510.203125 431.121094 510.054688 443.121094 510.257812 455.113281 C 510.394531 463.316406 514.035156 469.785156 521.339844 473.800781 C 523.167969 474.804688 522.867188 476.089844 522.597656 477.425781 C 521.496094 482.882812 520.277344 488.320312 519.101562 493.761719 C 518.699219 495.617188 518.382812 497.496094 517.832031 499.308594 C 517.671875 499.832031 516.855469 500.484375 516.316406 500.507812 C 514.894531 500.5625 513.4375 500.101562 512.042969 500.265625 C 511.375 500.34375 510.339844 501.324219 510.289062 501.964844 C 510.085938 504.507812 510.203125 507.078125 510.203125 509.640625 C 510.203125 516.917969 510.050781 524.199219 510.265625 531.472656 C 510.386719 535.699219 509.238281 539.660156 508.480469 543.707031 C 507.558594 548.617188 506.398438 553.484375 505.355469 558.375 C 504.347656 563.082031 503.363281 567.792969 502.363281 572.5 C 501.339844 577.332031 500.324219 582.167969 499.28125 586.996094 C 498.628906 590.023438 497.902344 593.03125 497.285156 596.066406 C 497.035156 597.300781 496.347656 597.679688 495.195312 597.621094 C 489.511719 597.339844 483.789062 597.390625 478.152344 596.734375 C 469.230469 595.699219 460.378906 594.222656 451.625 592.039062 C 442.0625 589.65625 432.699219 586.785156 423.683594 582.835938 C 417.976562 580.335938 412.171875 577.960938 406.773438 574.886719 C 399.097656 570.515625 391.589844 565.796875 384.328125 560.765625 C 379.003906 557.078125 374.0625 552.796875 369.1875 548.507812 C 364.820312 544.664062 360.507812 540.691406 356.65625 536.34375 C 350.792969 529.722656 344.933594 523.023438 339.839844 515.8125 C 334.46875 508.210938 329.554688 500.207031 325.273438 491.945312 C 321.25 484.171875 318.035156 475.941406 314.988281 467.71875 C 312.535156 461.101562 310.65625 454.246094 308.921875 447.394531 C 307.730469 442.703125 307.101562 437.859375 306.441406 433.054688 C 305.753906 428.042969 305.058594 423.003906 304.851562 417.957031 C 304.496094 409.261719 304.304688 400.546875 304.46875 391.847656 C 304.5625 386.671875 305.117188 381.445312 306.078125 376.355469 C 307.835938 367.101562 309.695312 357.839844 312.171875 348.757812 C 314.578125 339.929688 318.023438 331.414062 321.902344 323.085938 C 327.21875 311.683594 333.503906 300.890625 340.910156 290.71875 C 345.5625 284.328125 350.4375 278.152344 355.964844 272.507812 C 360.34375 268.039062 364.574219 263.390625 369.273438 259.285156 C 378.121094 251.554688 387.339844 244.277344 397.636719 238.5 C 402.886719 235.554688 407.984375 232.285156 413.417969 229.730469 C 419.886719 226.691406 426.648438 224.261719 433.273438 221.554688 C 433.800781 221.339844 434.289062 221.023438 434.992188 220.753906 M 458.445312 476.914062 C 460.316406 476.714844 462.183594 476.382812 464.058594 476.335938 C 468.09375 476.230469 471.8125 475.246094 475.257812 473.089844 C 481.15625 469.394531 484.832031 464.074219 485.027344 457.214844 C 485.398438 444.222656 485.125 431.214844 485.152344 418.210938 C 485.15625 416.980469 484.886719 416.433594 483.496094 416.4375 C 459.511719 416.472656 435.527344 416.46875 411.542969 416.453125 C 409.960938 416.449219 409.40625 417.207031 409.519531 418.667969 C 409.789062 422.128906 410.054688 425.589844 410.328125 429.046875 C 410.59375 432.371094 410.75 435.710938 411.167969 439.015625 C 411.722656 443.398438 412.425781 447.769531 413.175781 452.125 C 413.90625 456.382812 414.695312 460.636719 415.605469 464.863281 C 416.734375 470.105469 418.019531 475.3125 419.21875 480.539062 C 419.597656 482.195312 420.347656 482.605469 422.128906 482.175781 C 426.023438 481.246094 429.992188 480.59375 433.957031 479.972656 C 437.273438 479.453125 440.621094 479.125 443.960938 478.738281 C 448.71875 478.1875 453.484375 477.65625 458.445312 476.914062 M 449.753906 330.335938 C 446.070312 329.796875 442.378906 329.3125 438.703125 328.707031 C 433.292969 327.8125 427.90625 326.785156 422.492188 325.917969 C 421.015625 325.679688 419.636719 325.648438 419.167969 327.84375 C 417.992188 333.316406 416.382812 338.695312 415.222656 344.171875 C 414.207031 348.980469 413.523438 353.859375 412.769531 358.722656 C 412.285156 361.84375 411.867188 364.976562 411.558594 368.121094 C 410.960938 374.15625 410.46875 380.199219 409.917969 386.238281 C 409.835938 387.132812 409.6875 388.023438 409.511719 388.902344 C 409.113281 390.882812 409.527344 391.394531 411.625 391.394531 C 435.472656 391.394531 459.316406 391.378906 483.160156 391.429688 C 484.777344 391.429688 485.175781 390.945312 485.167969 389.375 C 485.105469 377.453125 485.148438 365.53125 485.117188 353.609375 C 485.113281 352.117188 484.945312 350.609375 484.714844 349.132812 C 483.824219 343.359375 481.015625 338.835938 476.085938 335.5625 C 472.824219 333.398438 469.359375 332.210938 465.453125 331.914062 C 460.34375 331.53125 455.253906 330.875 449.753906 330.335938 M 334.714844 447.398438 C 334.847656 447.613281 335.046875 447.808594 335.109375 448.042969 C 337.632812 457.933594 341.117188 467.503906 345.703125 476.597656 C 349.230469 483.589844 353.253906 490.347656 357.34375 497.035156 C 360.140625 501.605469 360.359375 501.46875 365.359375 499.238281 C 365.871094 499.011719 366.375 498.761719 366.894531 498.550781 C 375.566406 495.023438 384.261719 491.558594 393.363281 489.253906 C 394.796875 488.890625 395.253906 487.9375 394.949219 486.625 C 394.183594 483.378906 393.25 480.167969 392.554688 476.910156 C 391.140625 470.273438 389.738281 463.628906 388.53125 456.953125 C 387.785156 452.835938 387.402344 448.648438 386.878906 444.492188 C 386.324219 440.066406 385.664062 435.652344 385.296875 431.210938 C 384.972656 427.308594 384.976562 423.375 384.859375 419.457031 C 384.792969 417.246094 384.011719 416.464844 381.761719 416.464844 C 371.789062 416.464844 361.820312 416.464844 351.847656 416.464844 C 345.175781 416.464844 338.507812 416.515625 331.835938 416.429688 C 330.21875 416.40625 329.636719 416.90625 329.851562 418.484375 C 330.035156 419.835938 330.125 421.199219 330.265625 422.558594 C 330.53125 425.144531 330.617188 427.761719 331.113281 430.300781 C 332.203125 435.886719 333.5 441.433594 334.714844 447.398438 M 339.363281 346.511719 C 337.601562 352.3125 335.632812 358.0625 334.144531 363.9375 C 332.839844 369.101562 332.050781 374.398438 331.085938 379.648438 C 330.613281 382.230469 330.289062 384.835938 329.855469 387.425781 C 329.277344 390.890625 329.675781 391.394531 333.117188 391.394531 C 349.417969 391.394531 365.714844 391.394531 382.011719 391.394531 C 382.484375 391.394531 383.003906 391.515625 383.414062 391.359375 C 383.816406 391.203125 384.34375 390.804688 384.40625 390.4375 C 384.648438 389.097656 384.746094 387.730469 384.847656 386.371094 C 385.132812 382.578125 385.320312 378.773438 385.679688 374.988281 C 386.144531 370.085938 386.671875 365.1875 387.296875 360.304688 C 388.027344 354.636719 388.679688 348.941406 389.761719 343.335938 C 391.15625 336.082031 392.832031 328.878906 394.636719 321.714844 C 395.078125 319.960938 394.867188 319.296875 393.183594 319 C 392.570312 318.894531 391.980469 318.664062 391.386719 318.46875 C 381.496094 315.226562 371.648438 311.863281 362.226562 307.417969 C 360.46875 306.59375 359.796875 307.257812 358.96875 308.480469 C 353.039062 317.222656 347.765625 326.335938 343.625 336.070312 C 342.1875 339.445312 340.914062 342.894531 339.363281 346.511719 M 429.738281 297.378906 C 429.546875 297.976562 429.398438 298.585938 429.160156 299.164062 C 428.136719 301.625 428.132812 301.597656 430.800781 302.035156 C 437.296875 303.101562 443.769531 304.316406 450.289062 305.226562 C 455.5625 305.960938 460.878906 306.457031 466.191406 306.851562 C 471.726562 307.261719 477.289062 307.363281 482.828125 307.726562 C 484.707031 307.847656 485.183594 307.265625 485.179688 305.394531 C 485.109375 283.902344 485.132812 262.40625 485.132812 240.914062 C 485.132812 240.507812 485.101562 240.101562 485.140625 239.699219 C 485.351562 237.496094 485.101562 237.210938 483.011719 238.085938 C 479.734375 239.449219 476.386719 240.75 473.351562 242.550781 C 469.632812 244.753906 466 247.203125 462.699219 249.980469 C 459.269531 252.871094 456.144531 256.164062 453.132812 259.503906 C 450.542969 262.378906 448.234375 265.515625 445.925781 268.632812 C 439.386719 277.464844 434.445312 287.203125 429.738281 297.378906 M 485.132812 544.039062 C 485.132812 533.265625 485.132812 522.492188 485.132812 511.71875 C 485.132812 508.554688 485.136719 505.390625 485.132812 502.226562 C 485.132812 500.699219 484.816406 499.648438 482.910156 500.527344 C 482.46875 500.730469 481.851562 500.542969 481.316406 500.574219 C 476.847656 500.835938 472.375 501.046875 467.914062 501.394531 C 461.738281 501.875 455.566406 502.4375 449.394531 503.007812 C 447.214844 503.210938 445.03125 503.476562 442.871094 503.832031 C 439.097656 504.449219 435.359375 505.289062 431.574219 505.789062 C 428.3125 506.214844 427.949219 506.605469 429.335938 509.492188 C 431.902344 514.828125 434.332031 520.234375 437.105469 525.457031 C 439.347656 529.675781 441.816406 533.800781 444.527344 537.730469 C 449.3125 544.660156 454.714844 551.109375 461.042969 556.710938 C 463.320312 558.726562 465.722656 560.609375 468.167969 562.421875 C 472.679688 565.761719 477.679688 568.199219 482.941406 570.140625 C 484.738281 570.800781 485.128906 570.632812 485.132812 568.683594 C 485.140625 560.601562 485.132812 552.523438 485.132812 544.039062 M 379.597656 284.035156 C 379.167969 284.464844 378.777344 284.945312 378.304688 285.3125 C 376.953125 286.363281 377.804688 287.113281 378.757812 287.441406 C 386.367188 290.0625 394.039062 292.507812 401.609375 295.238281 C 403.054688 295.757812 403.449219 295.183594 403.835938 294.3125 C 405.328125 290.957031 406.730469 287.558594 408.164062 284.179688 C 411.699219 275.84375 416.117188 267.980469 421.0625 260.417969 C 422.957031 257.515625 425.230469 254.863281 427.304688 252.074219 C 427.484375 251.832031 427.46875 251.433594 427.542969 251.109375 C 427.1875 251.101562 426.765625 250.960938 426.484375 251.105469 C 425.367188 251.675781 424.324219 252.390625 423.203125 252.949219 C 415.402344 256.835938 407.964844 261.289062 400.839844 266.34375 C 393.367188 271.648438 386.296875 277.382812 379.597656 284.035156 M 409.722656 527.257812 C 407.863281 522.972656 406.007812 518.6875 404.144531 514.40625 C 403.5625 513.0625 402.6875 512.308594 401.097656 512.824219 C 397.414062 514.015625 393.675781 515.066406 390.03125 516.371094 C 386.339844 517.6875 382.734375 519.253906 379.085938 520.6875 C 377.519531 521.300781 377.132812 521.984375 378.597656 523.257812 C 382.425781 526.589844 386.078125 530.136719 390.003906 533.351562 C 394.28125 536.859375 398.59375 540.390625 403.242188 543.363281 C 410.816406 548.203125 418.671875 552.601562 426.421875 557.160156 C 426.695312 557.320312 427.136719 557.191406 427.496094 557.195312 C 427.40625 556.824219 427.417969 556.367188 427.199219 556.09375 C 426.691406 555.46875 425.9375 555.019531 425.523438 554.347656 C 421.507812 547.867188 417.488281 541.386719 413.59375 534.832031 C 412.195312 532.476562 411.136719 529.921875 409.722656 527.257812 Z M 409.722656 527.257812 " fill-opacity="1" fill-rule="nonzero"/></g><path fill="#fef5e4" d="M 808.21875 397.054688 C 808.082031 399.628906 808.015625 402.003906 807.753906 404.359375 C 807.703125 404.800781 806.882812 405.492188 806.410156 405.496094 C 798.59375 405.566406 790.777344 405.570312 782.960938 405.488281 C 782.480469 405.484375 781.589844 404.644531 781.59375 404.195312 C 781.628906 398.660156 781.777344 393.121094 781.945312 387.582031 C 782 385.886719 782.285156 384.191406 782.324219 382.492188 C 782.492188 375.203125 782.589844 367.914062 782.75 360.625 C 782.851562 355.964844 783.007812 351.300781 783.148438 346.640625 C 783.277344 342.25 783.414062 337.855469 783.558594 333.464844 C 783.570312 333.089844 783.644531 332.695312 783.777344 332.34375 C 784.285156 331.007812 783.433594 330.503906 782.410156 330.359375 C 777.628906 329.679688 776.972656 330 775.921875 334.574219 C 774.675781 340.019531 773.738281 345.535156 772.628906 351.011719 C 771.546875 356.351562 770.425781 361.6875 769.304688 367.019531 C 768.132812 372.597656 766.933594 378.167969 765.761719 383.746094 C 764.644531 389.082031 763.566406 394.425781 762.4375 399.757812 C 762.125 401.234375 761.519531 402.664062 761.363281 404.148438 C 761.238281 405.335938 760.769531 405.5625 759.730469 405.558594 C 743.425781 405.539062 727.117188 405.535156 710.808594 405.566406 C 709.644531 405.570312 709.035156 405.292969 709.144531 404.019531 C 709.5625 399.132812 709.96875 394.246094 710.359375 389.359375 C 710.519531 387.328125 710.652344 385.292969 710.761719 383.257812 C 710.917969 380.347656 711.015625 377.4375 711.179688 374.53125 C 711.257812 373.167969 711.554688 371.808594 711.511719 370.453125 C 711.496094 370.007812 710.726562 369.214844 710.292969 369.210938 C 702.8125 369.132812 695.332031 369.121094 687.855469 369.21875 C 687.265625 369.226562 686.363281 370.019531 686.148438 370.640625 C 682.578125 380.957031 679.09375 391.304688 675.585938 401.648438 C 675.285156 402.53125 674.902344 403.390625 674.636719 404.285156 C 674.28125 405.492188 673.421875 405.566406 672.355469 405.5625 C 657.933594 405.539062 643.511719 405.546875 629.089844 405.546875 C 628.417969 405.546875 627.742188 405.542969 627.070312 405.546875 C 623.863281 405.558594 623.925781 405.574219 624.625 402.292969 C 626.546875 393.3125 628.378906 384.308594 630.308594 375.328125 C 631.875 368.035156 633.59375 360.773438 635.136719 353.476562 C 636.695312 346.085938 638.058594 338.65625 639.617188 331.265625 C 641.15625 323.96875 642.847656 316.703125 644.449219 309.417969 C 646.0625 302.0625 647.652344 294.703125 649.207031 287.335938 C 649.292969 286.921875 648.945312 286.421875 648.800781 285.960938 C 648.429688 286.265625 647.851562 286.496094 647.714844 286.882812 C 646.65625 289.886719 645.757812 292.945312 644.667969 295.933594 C 640.988281 306 637.195312 316.023438 633.554688 326.101562 C 631.289062 332.378906 629.292969 338.757812 627.046875 345.042969 C 623.984375 353.609375 620.757812 362.117188 617.671875 370.675781 C 613.757812 381.523438 609.925781 392.398438 606.023438 403.25 C 605.480469 404.761719 604.6875 405.84375 602.636719 405.609375 C 600.242188 405.335938 597.789062 405.621094 595.371094 405.488281 C 594.863281 405.457031 593.957031 404.648438 593.976562 404.226562 C 594.132812 400.226562 594.453125 396.226562 594.714844 392.226562 C 594.863281 389.925781 595.007812 387.625 595.113281 385.320312 C 595.269531 381.9375 595.359375 378.554688 595.53125 375.175781 C 595.773438 370.433594 596.046875 365.695312 596.339844 360.957031 C 596.582031 356.953125 596.890625 352.957031 597.136719 348.957031 C 597.558594 342.183594 597.9375 335.410156 598.359375 328.636719 C 598.605469 324.703125 598.914062 320.773438 599.160156 316.839844 C 599.578125 310.136719 599.949219 303.425781 600.386719 296.722656 C 600.597656 293.527344 600.929688 290.34375 601.171875 287.148438 C 601.203125 286.726562 601.027344 286.289062 600.945312 285.855469 C 600.488281 286.199219 599.765625 286.457031 599.617188 286.90625 C 599.207031 288.164062 599.035156 289.496094 598.757812 290.800781 C 597.007812 299.105469 595.222656 307.402344 593.511719 315.714844 C 591.851562 323.796875 590.335938 331.910156 588.628906 339.980469 C 586.96875 347.835938 585.0625 355.632812 583.414062 363.488281 C 581.4375 372.929688 579.65625 382.414062 577.714844 391.867188 C 576.875 395.945312 575.710938 399.960938 574.976562 404.054688 C 574.714844 405.5 574.113281 405.5625 573.019531 405.558594 C 566.550781 405.535156 560.082031 405.546875 553.613281 405.546875 C 553.273438 405.546875 552.9375 405.535156 552.601562 405.546875 C 550.21875 405.632812 550.140625 405.617188 550.65625 403.242188 C 552.234375 395.953125 553.9375 388.6875 555.476562 381.390625 C 557.035156 374 558.386719 366.570312 559.960938 359.183594 C 561.488281 352.015625 563.246094 344.898438 564.773438 337.730469 C 566.34375 330.347656 567.699219 322.914062 569.261719 315.523438 C 570.515625 309.59375 571.992188 303.710938 573.269531 297.78125 C 574.550781 291.832031 575.664062 285.84375 576.933594 279.886719 C 578.78125 271.226562 580.730469 262.585938 582.574219 253.925781 C 584.371094 245.496094 586.140625 237.058594 587.789062 228.597656 C 588.0625 227.195312 588.882812 226.855469 589.878906 226.851562 C 599.3125 226.796875 608.75 226.773438 618.183594 226.882812 C 619.285156 226.898438 621.117188 227.195312 620.199219 229.320312 C 620.125 229.492188 620.195312 229.71875 620.191406 229.921875 C 620.054688 235.796875 619.898438 241.671875 619.792969 247.546875 C 619.636719 256.25 619.535156 264.957031 619.375 273.660156 C 619.273438 279.332031 619.113281 285.003906 618.976562 290.675781 C 618.84375 296.214844 618.816406 301.757812 618.527344 307.289062 C 618.382812 310.097656 617.761719 312.886719 617.363281 315.683594 C 617.328125 315.949219 617.3125 316.234375 617.371094 316.488281 C 617.472656 316.933594 617.644531 317.363281 617.789062 317.800781 C 618.183594 317.40625 618.796875 317.074219 618.9375 316.601562 C 619.503906 314.734375 619.738281 312.757812 620.421875 310.941406 C 622.765625 304.707031 625.234375 298.515625 627.683594 292.320312 C 630.429688 285.371094 633.171875 278.421875 635.980469 271.496094 C 639.324219 263.246094 642.753906 255.027344 646.113281 246.78125 C 648.554688 240.785156 650.957031 234.773438 653.335938 228.75 C 653.886719 227.351562 654.964844 226.839844 656.285156 226.835938 C 665.789062 226.804688 675.289062 226.800781 684.792969 226.847656 C 685.875 226.855469 686.609375 227.113281 686.175781 228.785156 C 684.890625 233.742188 683.941406 238.789062 682.867188 243.804688 C 681.859375 248.507812 680.871094 253.21875 679.863281 257.925781 C 678.710938 263.308594 677.542969 268.691406 676.398438 274.078125 C 675.398438 278.785156 674.433594 283.503906 673.429688 288.214844 C 672.410156 292.976562 671.347656 297.730469 670.335938 302.496094 C 669.203125 307.828125 668.117188 313.167969 666.996094 318.503906 C 666.097656 322.777344 665.175781 327.046875 664.265625 331.320312 C 663.128906 336.644531 661.992188 341.96875 660.851562 347.292969 C 659.835938 352.0625 658.800781 356.824219 657.800781 361.59375 C 656.796875 366.375 655.851562 371.164062 654.84375 375.941406 C 653.695312 381.390625 652.53125 386.835938 651.316406 392.269531 C 650.546875 395.714844 649.660156 399.132812 648.859375 402.570312 C 648.726562 403.136719 648.765625 403.746094 648.722656 404.332031 C 649.1875 403.789062 649.863281 403.320312 650.078125 402.691406 C 651.492188 398.554688 652.703125 394.347656 654.175781 390.234375 C 657.578125 380.730469 661.097656 371.265625 664.558594 361.78125 C 667.03125 354.992188 669.472656 348.183594 671.953125 341.394531 C 675.433594 331.851562 678.945312 322.320312 682.425781 312.777344 C 684.34375 307.507812 686.210938 302.214844 688.125 296.945312 C 691.746094 286.988281 695.390625 277.039062 699.007812 267.082031 C 701.453125 260.34375 703.882812 253.601562 706.296875 246.851562 C 708.480469 240.746094 710.554688 234.601562 712.875 228.546875 C 713.179688 227.746094 714.628906 226.90625 715.5625 226.894531 C 724.726562 226.769531 733.890625 226.808594 743.058594 226.828125 C 745.390625 226.832031 746.21875 228.375 745.449219 231.15625 C 745.351562 231.519531 745.164062 231.875 745.148438 232.242188 C 744.996094 235.753906 744.910156 239.273438 744.722656 242.785156 C 744.351562 249.765625 743.9375 256.738281 743.515625 263.714844 C 743.269531 267.78125 742.964844 271.847656 742.714844 275.914062 C 742.429688 280.585938 742.179688 285.261719 741.898438 289.933594 C 741.644531 294.203125 741.359375 298.472656 741.09375 302.742188 C 740.6875 309.378906 740.285156 316.019531 739.878906 322.65625 C 739.613281 326.992188 739.335938 331.328125 739.074219 335.664062 C 738.796875 340.203125 738.535156 344.742188 738.261719 349.28125 C 737.996094 353.683594 737.726562 358.085938 737.453125 362.492188 C 737.1875 366.757812 736.90625 371.027344 736.648438 375.296875 C 736.367188 379.902344 736.160156 384.511719 735.820312 389.113281 C 735.488281 393.667969 735.011719 398.210938 734.644531 402.765625 C 734.605469 403.273438 734.871094 403.808594 734.992188 404.332031 C 735.273438 403.753906 735.699219 403.203125 735.8125 402.59375 C 736.832031 397.144531 737.738281 391.671875 738.796875 386.230469 C 739.753906 381.324219 740.863281 376.445312 741.902344 371.550781 C 743.148438 365.664062 744.378906 359.777344 745.644531 353.894531 C 746.667969 349.132812 747.753906 344.386719 748.769531 339.625 C 749.800781 334.789062 750.777344 329.941406 751.789062 325.101562 C 752.796875 320.265625 753.816406 315.433594 754.84375 310.597656 C 755.960938 305.335938 757.089844 300.074219 758.21875 294.8125 C 759.246094 290.050781 760.292969 285.292969 761.308594 280.527344 C 762.339844 275.695312 763.351562 270.859375 764.363281 266.023438 C 765.375 261.183594 766.355469 256.335938 767.382812 251.5 C 768.5 246.242188 769.65625 240.988281 770.796875 235.734375 C 771.269531 233.570312 771.917969 231.429688 772.179688 229.242188 C 772.421875 227.203125 773.660156 226.832031 775.277344 226.828125 C 782.691406 226.808594 790.117188 226.5625 797.511719 226.902344 C 803.046875 227.160156 808.667969 227.152344 814.070312 228.828125 C 819.054688 230.378906 823.667969 232.472656 827.328125 236.390625 C 831.050781 240.375 833.289062 245.085938 834.03125 250.386719 C 834.628906 254.675781 835.03125 259.070312 834.800781 263.378906 C 834.535156 268.433594 833.8125 273.519531 832.695312 278.457031 C 831.496094 283.75 829.84375 288.976562 827.972656 294.078125 C 825.707031 300.246094 822.816406 306.175781 818.3125 311.082031 C 816.027344 313.574219 813.425781 315.773438 810.957031 318.089844 C 810.019531 318.964844 809.382812 319.816406 809.378906 321.300781 C 809.355469 328.992188 809.148438 336.6875 809.03125 344.382812 C 808.988281 347.347656 809.0625 350.3125 809.019531 353.277344 C 808.902344 361.578125 808.769531 369.878906 808.617188 378.179688 C 808.503906 384.402344 808.351562 390.628906 808.21875 397.054688 M 807.003906 279.183594 C 807.140625 278.433594 807.238281 277.671875 807.414062 276.929688 C 808.457031 272.472656 808.589844 267.992188 807.808594 263.488281 C 806.476562 255.792969 801.820312 253.5 795.5 253.078125 C 793.875 252.96875 793.222656 253.929688 792.886719 255.132812 C 792.464844 256.664062 792.359375 258.277344 792.035156 259.835938 C 791.042969 264.609375 790.015625 269.371094 789.003906 274.136719 C 787.859375 279.523438 786.71875 284.910156 785.570312 290.296875 C 784.675781 294.503906 783.757812 298.707031 782.878906 302.917969 C 782.691406 303.8125 782.636719 304.738281 782.519531 305.648438 C 783.347656 305.65625 784.175781 305.664062 785.003906 305.667969 C 785.140625 305.671875 785.273438 305.671875 785.410156 305.667969 C 791.042969 305.527344 795.425781 302.75 798.8125 298.601562 C 803.308594 293.09375 805.664062 286.527344 807.003906 279.183594 M 718.449219 286.867188 C 718.585938 285.371094 718.789062 283.878906 718.820312 282.382812 C 718.832031 281.796875 718.457031 281.199219 718.257812 280.609375 C 717.78125 281.070312 717.070312 281.441406 716.871094 282 C 715.054688 287.046875 713.320312 292.125 711.578125 297.195312 C 709.085938 304.453125 706.613281 311.71875 704.128906 318.980469 C 701.746094 325.945312 699.390625 332.917969 696.960938 339.867188 C 696.5 341.183594 696.246094 341.964844 698.109375 341.277344 C 698.527344 341.121094 699.046875 341.253906 699.519531 341.253906 C 703.695312 341.253906 707.875 341.183594 712.050781 341.285156 C 713.816406 341.332031 714.328125 340.496094 714.414062 338.972656 C 714.511719 337.273438 714.675781 335.578125 714.808594 333.882812 C 715.214844 328.792969 715.625 323.703125 716.023438 318.613281 C 716.433594 313.324219 716.863281 308.035156 717.226562 302.742188 C 717.542969 298.136719 717.765625 293.527344 718.058594 288.925781 C 718.09375 288.367188 718.316406 287.820312 718.449219 286.867188 Z M 718.449219 286.867188 " fill-opacity="1" fill-rule="nonzero"/><g clip-path="url(#d28b033800)"><path fill="#fef5e4" d="M 1004.632812 230.359375 C 1004.6875 228.445312 1005.578125 227.621094 1007.382812 227.621094 C 1049.574219 227.628906 1091.761719 227.628906 1133.949219 227.628906 C 1135.210938 227.628906 1135.914062 227.492188 1135.445312 229.476562 C 1133.710938 236.824219 1132.425781 244.277344 1130.882812 251.667969 C 1129.328125 259.097656 1127.609375 266.496094 1126.0625 273.925781 C 1124.898438 279.527344 1123.941406 285.171875 1122.792969 290.777344 C 1121.652344 296.355469 1120.359375 301.902344 1119.195312 307.476562 C 1118.066406 312.882812 1117.023438 318.304688 1115.933594 323.71875 C 1114.050781 333.046875 1112.199219 342.378906 1110.261719 351.695312 C 1108.429688 360.496094 1106.445312 369.265625 1104.628906 378.066406 C 1102.804688 386.898438 1101.144531 395.761719 1099.28125 404.582031 C 1099.132812 405.285156 1097.980469 405.808594 1097.234375 406.332031 C 1097.007812 406.488281 1096.578125 406.355469 1096.242188 406.355469 C 1054.390625 406.355469 1012.539062 406.347656 970.6875 406.378906 C 968.933594 406.378906 968.105469 406.355469 968.671875 404.046875 C 970.238281 397.648438 971.472656 391.167969 972.78125 384.710938 C 974.035156 378.550781 975.167969 372.363281 976.445312 366.207031 C 977.84375 359.453125 979.378906 352.726562 980.792969 345.976562 C 981.820312 341.066406 982.730469 336.128906 983.710938 331.210938 C 984.683594 326.359375 985.664062 321.507812 986.667969 316.664062 C 987.6875 311.765625 988.765625 306.878906 989.765625 301.976562 C 990.769531 297.0625 991.675781 292.125 992.675781 287.207031 C 993.699219 282.179688 994.769531 277.160156 995.84375 272.144531 C 996.863281 267.382812 997.949219 262.632812 998.953125 257.867188 C 999.96875 253.023438 1000.910156 248.164062 1001.910156 243.320312 C 1002.667969 239.660156 1003.472656 236.015625 1004.242188 232.359375 C 1004.375 231.734375 1004.4375 231.09375 1004.632812 230.359375 M 1008.980469 301.222656 C 1010.429688 301.625 1011.878906 302.363281 1013.332031 302.378906 C 1022.828125 302.484375 1032.332031 302.496094 1041.828125 302.386719 C 1043.828125 302.363281 1044.417969 302.824219 1044.414062 304.90625 C 1044.335938 329.632812 1044.363281 354.359375 1044.363281 379.085938 C 1044.363281 382.707031 1046.078125 385.042969 1049.644531 385.679688 C 1051.964844 386.09375 1054.375 386.121094 1056.742188 386.109375 C 1059.933594 386.089844 1063.421875 383.351562 1063.410156 379.394531 C 1063.328125 354.667969 1063.367188 329.941406 1063.367188 305.214844 C 1063.367188 302.5625 1063.5 302.433594 1066.234375 302.433594 C 1075.53125 302.433594 1084.832031 302.417969 1094.128906 302.441406 C 1098.957031 302.457031 1102.34375 299.644531 1101.816406 294.898438 C 1101.609375 293.035156 1101.757812 291.128906 1101.789062 289.242188 C 1101.828125 286.847656 1100.710938 285.0625 1098.601562 284.171875 C 1097.054688 283.519531 1095.292969 283.09375 1093.621094 283.074219 C 1084.929688 282.96875 1076.238281 283.027344 1067.546875 283.027344 C 1067.074219 283.027344 1066.585938 282.949219 1066.132812 283.039062 C 1063.730469 283.519531 1063.371094 283.265625 1063.367188 280.917969 C 1063.367188 270.8125 1063.371094 260.707031 1063.363281 250.597656 C 1063.363281 248.140625 1061.230469 245.347656 1058.847656 245.054688 C 1056.296875 244.742188 1053.710938 244.675781 1051.136719 244.628906 C 1046.898438 244.546875 1044.292969 247.820312 1044.328125 251.40625 C 1044.425781 261.242188 1044.324219 271.082031 1044.398438 280.917969 C 1044.414062 282.582031 1043.980469 283.058594 1042.277344 283.070312 C 1031.957031 283.117188 1021.636719 283.273438 1011.316406 283.445312 C 1009.011719 283.484375 1006.808594 285.074219 1006.417969 287.328125 C 1005.996094 289.785156 1006.167969 292.335938 1005.925781 294.828125 C 1005.664062 297.480469 1006.519531 299.578125 1008.980469 301.222656 Z M 1008.980469 301.222656 " fill-opacity="1" fill-rule="nonzero"/></g><g clip-path="url(#cabffd2c14)"><path fill="#fef5e4" d="M 576.117188 418.890625 C 587.03125 418.890625 597.746094 418.898438 608.457031 418.882812 C 609.886719 418.878906 610.582031 418.679688 609.800781 420.769531 C 608.535156 424.171875 608.097656 427.878906 607.234375 431.441406 C 606.792969 433.261719 606.136719 435.035156 605.699219 436.859375 C 605.5625 437.425781 605.828125 438.085938 605.90625 438.703125 C 606.273438 438.3125 606.746094 437.980469 606.988281 437.523438 C 609.386719 432.996094 612.851562 429.328125 616.605469 425.960938 C 621.453125 421.617188 627.179688 418.800781 633.589844 417.746094 C 637.460938 417.109375 641.464844 416.722656 645.367188 416.945312 C 656.789062 417.609375 665.800781 423.464844 668.679688 436.035156 C 669.4375 439.335938 670.28125 442.734375 670.207031 446.070312 C 670.117188 450.347656 669.285156 454.636719 668.515625 458.875 C 667.648438 463.664062 666.496094 468.40625 665.480469 473.171875 C 664.449219 478.003906 663.421875 482.832031 662.414062 487.667969 C 661.402344 492.507812 660.421875 497.351562 659.410156 502.191406 C 658.324219 507.402344 657.242188 512.609375 656.117188 517.808594 C 655.085938 522.566406 653.957031 527.300781 652.957031 532.0625 C 651.953125 536.847656 651.105469 541.664062 650.097656 546.449219 C 649.085938 551.273438 648.148438 556.125 646.835938 560.867188 C 644.464844 569.4375 640.988281 577.441406 635.03125 584.296875 C 630.671875 589.316406 625.710938 593.453125 619.714844 596.136719 C 616.605469 597.53125 613.101562 598.183594 609.703125 598.761719 C 606.917969 599.234375 604.023438 599.3125 601.191406 599.191406 C 594.144531 598.890625 587.683594 597.066406 582.742188 591.535156 C 579.65625 588.082031 577.816406 584.035156 576.96875 579.574219 C 576.332031 576.214844 575.628906 572.746094 575.828125 569.378906 C 576.105469 564.742188 577.121094 560.140625 577.976562 555.550781 C 578.878906 550.691406 579.945312 545.863281 580.972656 541.027344 C 582.089844 535.765625 583.25 530.515625 584.382812 525.257812 C 585.40625 520.492188 586.417969 515.726562 587.4375 510.957031 C 588.46875 506.128906 589.5 501.300781 590.523438 496.46875 C 591.523438 491.761719 592.519531 487.050781 593.5 482.339844 C 594.613281 477.003906 595.679688 471.660156 596.820312 466.328125 C 597.695312 462.253906 598.542969 458.164062 599.609375 454.136719 C 600.226562 451.800781 601.289062 449.582031 602.0625 447.28125 C 602.179688 446.933594 601.929688 446.238281 601.625 446.03125 C 601.300781 445.8125 600.714844 445.980469 600.242188 445.980469 C 590.203125 445.980469 580.164062 446 570.121094 445.960938 C 568.554688 445.957031 567.875 446.339844 567.550781 448.105469 C 566.585938 453.386719 565.261719 458.597656 564.121094 463.847656 C 563.101562 468.554688 562.128906 473.269531 561.15625 477.984375 C 560.316406 482.085938 559.683594 486.242188 558.605469 490.28125 C 558.113281 492.132812 558.511719 492.5 560.1875 492.496094 C 566.996094 492.46875 573.800781 492.480469 580.605469 492.484375 C 582.742188 492.488281 582.808594 492.789062 582.203125 494.738281 C 581.367188 497.445312 580.75 500.222656 580.175781 502.996094 C 579.164062 507.914062 578.300781 512.859375 577.269531 517.773438 C 577.035156 518.882812 576.5 519.679688 574.878906 519.640625 C 568.214844 519.484375 561.539062 519.683594 554.871094 519.511719 C 552.8125 519.460938 552.203125 520.53125 551.875 522.042969 C 549.945312 530.886719 548.042969 539.738281 546.203125 548.601562 C 544.667969 555.996094 543.296875 563.421875 541.726562 570.808594 C 540.199219 577.972656 538.507812 585.105469 536.902344 592.253906 C 536.828125 592.574219 536.933594 592.929688 536.886719 593.261719 C 536.335938 597.214844 536.332031 597.210938 532.332031 597.210938 C 526.066406 597.210938 519.800781 597.210938 513.53125 597.210938 C 513.195312 597.210938 512.859375 597.199219 512.523438 597.214844 C 509.570312 597.335938 509.539062 597.332031 510.210938 594.253906 C 512.082031 585.667969 514.007812 577.089844 515.859375 568.5 C 517.914062 558.964844 519.941406 549.429688 521.921875 539.878906 C 523.453125 532.484375 524.828125 525.058594 526.398438 517.671875 C 527.925781 510.507812 529.6875 503.390625 531.210938 496.226562 C 532.785156 488.839844 534.136719 481.410156 535.699219 474.019531 C 537.09375 467.40625 538.707031 460.839844 540.109375 454.226562 C 541.535156 447.523438 542.8125 440.789062 544.175781 434.074219 C 545.097656 429.542969 546.019531 425.007812 547.03125 420.496094 C 547.257812 419.472656 547.839844 418.828125 549.230469 418.84375 C 558.125 418.9375 567.019531 418.890625 576.117188 418.890625 M 629.894531 517.351562 C 630.433594 514.609375 630.941406 511.863281 631.519531 509.128906 C 632.671875 503.683594 633.878906 498.246094 635.03125 492.800781 C 636.039062 488.027344 636.984375 483.238281 637.984375 478.460938 C 638.984375 473.691406 640.046875 468.933594 641.023438 464.160156 C 642.054688 459.121094 643.546875 454.160156 643.265625 448.90625 C 643.054688 445.011719 639.523438 441.640625 636.234375 442.332031 C 630.457031 443.550781 627.730469 447.664062 626.285156 452.886719 C 625.359375 456.230469 624.699219 459.648438 623.960938 463.042969 C 622.820312 468.300781 621.710938 473.5625 620.597656 478.828125 C 619.570312 483.65625 618.554688 488.492188 617.53125 493.320312 C 616.535156 498.027344 615.53125 502.734375 614.527344 507.4375 C 613.484375 512.328125 612.429688 517.214844 611.398438 522.105469 C 610.273438 527.4375 609.183594 532.773438 608.054688 538.101562 C 607.046875 542.867188 605.914062 547.609375 604.992188 552.390625 C 604.058594 557.242188 602.433594 561.988281 602.78125 567.050781 C 602.941406 569.441406 604.785156 572.792969 606.613281 573.300781 C 610.195312 574.300781 614.023438 573.160156 616.363281 570.015625 C 618.773438 566.78125 620.148438 562.960938 620.980469 559.015625 C 622.53125 551.628906 623.917969 544.207031 625.460938 536.816406 C 626.808594 530.382812 628.277344 523.972656 629.894531 517.351562 Z M 629.894531 517.351562 " fill-opacity="1" fill-rule="nonzero"/></g><g clip-path="url(#87abeeca3e)"><path fill="#fef5e4" d="M 899.199219 545.453125 C 898.269531 539.441406 896 534.074219 893.609375 528.769531 C 890.867188 522.691406 887.960938 516.6875 885.199219 510.617188 C 881.347656 502.15625 877.425781 493.691406 875.40625 484.566406 C 874.488281 480.425781 874.0625 476.148438 873.761719 471.90625 C 872.945312 460.296875 876.285156 449.613281 881.867188 439.640625 C 886.074219 432.117188 891.90625 425.980469 899.527344 421.722656 C 903.863281 419.300781 908.46875 417.8125 913.445312 417.222656 C 919.601562 416.492188 925.570312 416.835938 931.453125 418.875 C 939.050781 421.511719 943.289062 427.019531 945.304688 434.566406 C 946.863281 440.394531 946.664062 446.347656 946.433594 452.257812 C 946.296875 455.824219 945.515625 459.378906 944.816406 462.898438 C 944.683594 463.558594 943.609375 464.433594 942.894531 464.515625 C 939.179688 464.929688 935.4375 465.050781 931.714844 465.410156 C 927.59375 465.8125 923.492188 466.390625 919.371094 466.789062 C 919.019531 466.824219 918.214844 466.007812 918.261719 465.679688 C 918.847656 461.566406 919.792969 457.492188 920.148438 453.363281 C 920.425781 450.117188 919.910156 446.769531 918.164062 443.921875 C 915.953125 440.320312 911.667969 440.167969 908.074219 442.988281 C 903.890625 446.269531 902.582031 451.144531 901.269531 455.925781 C 900.578125 458.441406 900.042969 461.109375 900.089844 463.695312 C 900.167969 468.15625 900.878906 472.582031 902.667969 476.746094 C 905.425781 483.152344 908.042969 489.621094 910.992188 495.9375 C 915.238281 505.03125 919.671875 514.015625 922.714844 523.636719 C 924.617188 529.644531 926.011719 535.644531 926.347656 541.957031 C 926.710938 548.769531 925.246094 555.230469 923.460938 561.679688 C 921.386719 569.171875 918.40625 576.230469 913.761719 582.535156 C 907.917969 590.46875 900.324219 595.742188 890.6875 598.03125 C 885.71875 599.210938 880.664062 599.605469 875.625 599.171875 C 869.550781 598.644531 863.644531 597.488281 858.515625 593.625 C 854.402344 590.527344 852.179688 586.378906 850.722656 581.695312 C 850.15625 579.875 850.160156 577.886719 849.847656 575.984375 C 849.769531 575.503906 849.484375 575.058594 849.292969 574.601562 C 849.078125 575.03125 848.757812 575.4375 848.667969 575.890625 C 847.617188 581.257812 846.605469 586.628906 845.570312 592 C 845.417969 592.804688 845.007812 593.609375 845.050781 594.394531 C 845.183594 596.84375 843.9375 597.261719 841.78125 597.25 C 823.855469 597.183594 805.929688 597.210938 788.007812 597.210938 C 787.535156 597.210938 787.058594 597.164062 786.59375 597.222656 C 784.84375 597.433594 784.390625 597.007812 784.773438 595.25 C 786.367188 587.960938 788.066406 580.699219 789.601562 573.398438 C 791.554688 564.085938 793.316406 554.734375 795.296875 545.425781 C 797.363281 535.722656 799.664062 526.066406 801.726562 516.359375 C 803.839844 506.433594 805.734375 496.464844 807.832031 486.535156 C 809.492188 478.683594 811.390625 470.882812 813.050781 463.03125 C 814.757812 454.957031 816.257812 446.84375 817.9375 438.765625 C 819.210938 432.636719 820.644531 426.542969 821.945312 420.421875 C 822.269531 418.90625 823.265625 418.878906 824.460938 418.878906 C 839.351562 418.894531 854.246094 418.890625 869.136719 418.890625 C 872.980469 418.890625 876.820312 418.929688 880.660156 418.871094 C 882.277344 418.847656 882.832031 418.996094 882.121094 420.917969 C 881.167969 423.503906 880.785156 426.300781 880.199219 429.019531 C 879.101562 434.09375 878.085938 439.1875 876.921875 444.246094 C 876.636719 445.496094 875.625 446.015625 874.21875 446.007812 C 864.582031 445.957031 854.945312 446.074219 845.308594 445.910156 C 843.15625 445.875 842.542969 446.738281 842.171875 448.5 C 840.582031 455.992188 838.925781 463.464844 837.339844 470.957031 C 835.957031 477.464844 834.617188 483.984375 833.304688 490.507812 C 833.03125 491.851562 833.46875 492.546875 835.101562 492.523438 C 841.773438 492.429688 848.445312 492.464844 855.117188 492.5 C 856.339844 492.507812 858.167969 491.65625 856.878906 494.578125 C 855.578125 497.527344 855.386719 500.96875 854.71875 504.195312 C 853.636719 509.40625 852.570312 514.621094 851.476562 519.832031 C 851.222656 521.046875 850.3125 521.214844 849.21875 521.207031 C 842.816406 521.175781 836.414062 521.261719 830.011719 521.160156 C 827.285156 521.117188 826.695312 521.382812 826.050781 524.328125 C 824.441406 531.707031 823.105469 539.144531 821.542969 546.53125 C 820.144531 553.144531 818.59375 559.726562 817.117188 566.324219 C 816.949219 567.070312 816.824219 567.828125 816.714844 568.582031 C 816.496094 570.074219 817.429688 570.140625 818.558594 570.132812 C 825.5 570.105469 832.441406 570.121094 839.378906 570.121094 C 841.875 570.121094 844.382812 569.957031 846.855469 570.171875 C 848.902344 570.347656 849.265625 569.191406 849.457031 567.683594 C 850.273438 561.347656 851.046875 555.003906 851.941406 548.679688 C 852.023438 548.09375 852.769531 547.226562 853.316406 547.136719 C 855.875 546.722656 858.472656 546.523438 861.054688 546.265625 C 866.492188 545.71875 871.929688 545.171875 877.371094 544.671875 C 877.832031 544.628906 878.328125 544.933594 878.804688 545.078125 C 878.683594 545.449219 878.539062 545.820312 878.441406 546.199219 C 877.941406 548.148438 877.246094 550.074219 877.003906 552.058594 C 876.574219 555.566406 876.199219 559.109375 876.222656 562.632812 C 876.242188 565.097656 876.65625 567.65625 877.425781 569.996094 C 878.933594 574.585938 882.492188 575.75 886.679688 574.703125 C 891.871094 573.410156 894.472656 569.28125 896.304688 564.75 C 897.683594 561.339844 898.859375 557.765625 899.460938 554.15625 C 899.914062 551.414062 899.324219 548.496094 899.199219 545.453125 Z M 899.199219 545.453125 " fill-opacity="1" fill-rule="nonzero"/></g><path fill="#fef5e4" d="M 895.558594 343.679688 C 896.234375 340.65625 896.953125 337.847656 897.574219 335.015625 C 899.480469 326.300781 901.367188 317.582031 903.238281 308.859375 C 905.140625 300.007812 907.054688 291.160156 908.890625 282.296875 C 910.5625 274.21875 912.066406 266.105469 913.773438 258.035156 C 915.433594 250.183594 917.261719 242.367188 919.011719 234.535156 C 919.425781 232.683594 920.121094 230.832031 920.144531 228.972656 C 920.171875 226.929688 921.59375 226.886719 922.707031 226.871094 C 930.183594 226.769531 937.664062 226.789062 945.144531 226.851562 C 946.34375 226.859375 947.328125 226.933594 946.617188 228.984375 C 945.410156 232.488281 944.867188 236.222656 944.085938 239.871094 C 942.945312 245.195312 941.851562 250.53125 940.714844 255.859375 C 939.699219 260.621094 938.640625 265.378906 937.613281 270.136719 C 936.453125 275.519531 935.316406 280.90625 934.144531 286.289062 C 933.160156 290.796875 932.125 295.292969 931.203125 299.8125 C 931.152344 300.0625 931.914062 300.769531 932.300781 300.773438 C 938.230469 300.835938 944.160156 300.863281 950.085938 300.742188 C 950.65625 300.730469 951.558594 299.734375 951.710938 299.058594 C 953.414062 291.597656 955.042969 284.113281 956.605469 276.621094 C 958.40625 267.988281 960.0625 259.332031 961.890625 250.707031 C 963.421875 243.472656 965.167969 236.289062 966.683594 229.050781 C 967.027344 227.398438 968.011719 226.859375 969.355469 226.847656 C 976.769531 226.789062 984.179688 226.785156 991.589844 226.851562 C 992.898438 226.863281 993.890625 226.945312 993.136719 229.140625 C 991.863281 232.824219 991.386719 236.78125 990.585938 240.625 C 989.613281 245.277344 988.664062 249.933594 987.683594 254.582031 C 986.78125 258.855469 985.835938 263.117188 984.925781 267.386719 C 983.789062 272.714844 982.679688 278.046875 981.539062 283.371094 C 980.523438 288.136719 979.472656 292.890625 978.457031 297.65625 C 977.425781 302.488281 976.414062 307.324219 975.402344 312.160156 C 974.390625 316.996094 973.410156 321.839844 972.382812 326.675781 C 971.265625 331.9375 970.105469 337.1875 968.972656 342.445312 C 967.949219 347.210938 966.929688 351.976562 965.917969 356.746094 C 964.789062 362.074219 963.671875 367.402344 962.542969 372.730469 C 961.648438 376.941406 960.75 381.152344 959.851562 385.363281 C 958.847656 390.066406 957.839844 394.769531 956.824219 399.472656 C 956.503906 400.953125 956.054688 402.410156 955.835938 403.90625 C 955.632812 405.300781 954.824219 405.558594 953.628906 405.554688 C 946.820312 405.535156 940.015625 405.601562 933.210938 405.496094 C 932 405.480469 930.285156 406.40625 929.648438 405.140625 C 929.160156 404.164062 929.683594 402.597656 929.949219 401.332031 C 931.390625 394.460938 932.878906 387.59375 934.382812 380.734375 C 935.535156 375.488281 936.761719 370.261719 937.902344 365.011719 C 938.921875 360.304688 939.863281 355.582031 940.847656 350.867188 C 941.863281 346.035156 942.875 341.199219 943.917969 336.371094 C 944.449219 333.90625 945.105469 331.460938 945.546875 328.980469 C 945.59375 328.722656 944.570312 327.96875 944.035156 327.957031 C 939.789062 327.871094 935.542969 327.910156 931.300781 327.910156 C 925.585938 327.910156 925.464844 327.882812 924.300781 333.070312 C 922.953125 339.070312 921.894531 345.140625 920.613281 351.160156 C 919.351562 357.089844 917.910156 362.984375 916.640625 368.914062 C 915.351562 374.925781 914.1875 380.96875 912.941406 386.992188 C 911.75 392.761719 910.542969 398.527344 909.285156 404.28125 C 909.027344 405.460938 908.03125 405.570312 906.945312 405.566406 C 899.9375 405.527344 892.929688 405.546875 885.921875 405.546875 C 885.652344 405.546875 885.382812 405.542969 885.113281 405.546875 C 882.316406 405.613281 882.429688 405.640625 883.105469 402.804688 C 884.242188 398.070312 885.238281 393.300781 886.253906 388.539062 C 887.285156 383.703125 888.265625 378.859375 889.277344 374.023438 C 890.289062 369.1875 891.28125 364.347656 892.332031 359.519531 C 893.375 354.703125 894.488281 349.902344 895.546875 345.089844 C 895.632812 344.703125 895.558594 344.285156 895.558594 343.679688 Z M 895.558594 343.679688 " fill-opacity="1" fill-rule="nonzero"/><path fill="#fef5e4" d="M 665.074219 502.59375 C 665.929688 498.164062 666.765625 493.933594 667.652344 489.710938 C 668.652344 484.945312 669.714844 480.191406 670.730469 475.425781 C 671.761719 470.597656 672.773438 465.761719 673.785156 460.925781 C 674.796875 456.085938 675.789062 451.246094 676.800781 446.410156 C 677.789062 441.699219 678.769531 436.988281 679.789062 432.285156 C 680.652344 428.335938 681.613281 424.40625 682.4375 420.453125 C 682.726562 419.070312 683.539062 418.875 684.722656 418.878906 C 694.625 418.898438 704.535156 418.710938 714.433594 418.953125 C 720.945312 419.113281 727.242188 420.84375 732.8125 424.257812 C 738.414062 427.691406 741.945312 432.90625 743.488281 439.320312 C 744.085938 441.800781 744.390625 444.359375 744.710938 446.898438 C 744.953125 448.78125 745.289062 450.722656 745.082031 452.582031 C 744.4375 458.402344 743.882812 464.265625 742.660156 469.976562 C 741.460938 475.589844 739.773438 481.144531 737.785156 486.535156 C 735.527344 492.644531 732.539062 498.480469 728.003906 503.277344 C 725.617188 505.804688 722.828125 507.945312 720.277344 510.316406 C 719.910156 510.660156 719.699219 511.339844 719.6875 511.867188 C 719.519531 520.164062 719.390625 528.464844 719.257812 536.761719 C 719.121094 545.195312 718.992188 553.628906 718.851562 562.0625 C 718.722656 569.753906 718.605469 577.449219 718.441406 585.140625 C 718.363281 588.722656 718.230469 592.308594 717.984375 595.882812 C 717.949219 596.355469 717.078125 597.152344 716.589844 597.15625 C 708.773438 597.238281 700.960938 597.238281 693.144531 597.152344 C 692.679688 597.148438 691.820312 596.277344 691.824219 595.8125 C 691.871094 588.59375 692.007812 581.371094 692.179688 574.152344 C 692.238281 571.578125 692.492188 569.011719 692.558594 566.4375 C 692.726562 560.09375 692.828125 553.746094 692.980469 547.402344 C 693.09375 542.605469 693.226562 537.8125 693.386719 533.015625 C 693.488281 529.90625 693.613281 526.792969 693.800781 523.6875 C 693.882812 522.355469 693.378906 521.835938 692.078125 521.996094 C 691.679688 522.042969 691.269531 522.019531 690.867188 522 C 686.148438 521.734375 686.863281 522.855469 686.113281 526.1875 C 685.03125 531.003906 684.011719 535.835938 683.011719 540.667969 C 681.992188 545.574219 681.042969 550.496094 680.03125 555.402344 C 679.042969 560.179688 678.011719 564.941406 677.007812 569.714844 C 675.988281 574.546875 674.980469 579.386719 673.972656 584.222656 C 673.15625 588.128906 672.386719 592.046875 671.523438 595.945312 C 671.261719 597.125 670.269531 597.238281 669.183594 597.230469 C 662.308594 597.195312 655.4375 597.210938 648.566406 597.210938 C 648.160156 597.210938 647.753906 597.1875 647.351562 597.214844 C 644.769531 597.410156 644.710938 597.398438 645.273438 594.839844 C 647.128906 586.386719 649.089844 577.953125 650.902344 569.488281 C 652.339844 562.789062 653.566406 556.042969 654.980469 549.339844 C 656.378906 542.722656 657.941406 536.144531 659.347656 529.53125 C 660.511719 524.070312 661.511719 518.574219 662.664062 513.109375 C 663.390625 509.65625 664.265625 506.230469 665.074219 502.59375 M 715.621094 477.722656 C 715.714844 477.226562 715.78125 476.71875 715.90625 476.226562 C 717.683594 469.476562 719.136719 462.722656 718.082031 455.636719 C 717.078125 448.90625 712.269531 444.570312 705.425781 444.851562 C 704.621094 444.886719 703.414062 445.914062 703.171875 446.71875 C 702.511719 448.898438 702.347656 451.21875 701.855469 453.457031 C 700.414062 460.050781 698.839844 466.621094 697.441406 473.226562 C 695.878906 480.605469 694.46875 488.015625 692.96875 495.40625 C 692.511719 497.652344 693.089844 498.265625 695.25 497.683594 C 695.546875 497.601562 695.824219 497.363281 696.117188 497.351562 C 700.652344 497.167969 704.28125 494.960938 707.398438 491.953125 C 711.398438 488.085938 713.648438 483.121094 715.621094 477.722656 Z M 715.621094 477.722656 " fill-opacity="1" fill-rule="nonzero"/><g clip-path="url(#54ae146535)"><path fill="#fef5e4" d="M 980.375 428.898438 C 978.855469 435.421875 977.386719 441.832031 976.039062 448.269531 C 974.496094 455.664062 973.121094 463.089844 971.558594 470.480469 C 970.308594 476.414062 968.839844 482.300781 967.5625 488.226562 C 966.28125 494.179688 965.15625 500.164062 963.886719 506.117188 C 962.039062 514.777344 960.066406 523.414062 958.25 532.082031 C 956.296875 541.394531 954.554688 550.753906 952.519531 560.050781 C 951.84375 563.144531 951.28125 566.164062 952.300781 569.210938 C 953.785156 573.652344 957.15625 574.46875 961.285156 572.964844 C 965.625 571.382812 967.476562 567.640625 968.648438 563.777344 C 970.261719 558.472656 971.191406 552.957031 972.382812 547.523438 C 973.535156 542.269531 974.652344 537.007812 975.785156 531.746094 C 976.808594 526.980469 977.835938 522.21875 978.855469 517.453125 C 979.886719 512.621094 980.917969 507.789062 981.929688 502.953125 C 982.941406 498.113281 983.902344 493.261719 984.929688 488.425781 C 986.046875 483.167969 987.230469 477.921875 988.359375 472.664062 C 989.386719 467.898438 990.390625 463.125 991.390625 458.351562 C 992.390625 453.574219 993.367188 448.792969 994.371094 444.015625 C 995.386719 439.183594 996.417969 434.355469 997.460938 429.527344 C 998.117188 426.5 998.847656 423.488281 999.457031 420.453125 C 999.707031 419.21875 1000.378906 418.875 1001.539062 418.878906 C 1009.355469 418.902344 1017.171875 418.902344 1024.988281 418.878906 C 1026.277344 418.875 1026.511719 419.070312 1026.078125 420.484375 C 1025.101562 423.675781 1024.464844 426.972656 1023.746094 430.242188 C 1021.707031 439.507812 1019.648438 448.773438 1017.691406 458.058594 C 1015.871094 466.683594 1014.234375 475.351562 1012.398438 483.976562 C 1010.597656 492.445312 1008.585938 500.867188 1006.777344 509.335938 C 1005.464844 515.484375 1004.417969 521.691406 1003.09375 527.835938 C 1001.582031 534.871094 999.851562 541.859375 998.289062 548.886719 C 997.394531 552.910156 996.839844 557.023438 995.78125 561 C 994.839844 564.546875 993.546875 568.015625 992.171875 571.425781 C 989.429688 578.238281 985.082031 583.980469 979.671875 588.875 C 974.375 593.664062 968.46875 597.476562 961.191406 598.386719 C 957.285156 598.875 953.316406 599.308594 949.402344 599.15625 C 942.859375 598.90625 936.914062 596.78125 932.1875 591.980469 C 928.640625 588.378906 926.800781 583.847656 925.964844 579.011719 C 925.304688 575.214844 925.019531 571.285156 925.171875 567.4375 C 925.320312 563.753906 926.148438 560.082031 926.859375 556.441406 C 927.789062 551.660156 928.910156 546.914062 929.925781 542.148438 C 930.957031 537.316406 931.96875 532.480469 932.980469 527.644531 C 933.992188 522.804688 934.972656 517.957031 936 513.125 C 937.117188 507.863281 938.28125 502.609375 939.414062 497.351562 C 940.4375 492.585938 941.445312 487.816406 942.464844 483.050781 C 943.496094 478.21875 944.535156 473.394531 945.558594 468.5625 C 946.558594 463.851562 947.542969 459.136719 948.53125 454.425781 C 949.542969 449.589844 950.546875 444.75 951.566406 439.914062 C 952.703125 434.523438 953.859375 429.136719 954.992188 423.746094 C 955.175781 422.871094 955.199219 421.953125 955.445312 421.097656 C 955.871094 419.613281 956.601562 418.789062 958.488281 418.828125 C 965.898438 418.980469 973.3125 418.878906 980.726562 418.902344 C 981.765625 418.90625 983.222656 418.214844 982.207031 420.628906 C 981.148438 423.148438 981.011719 426.058594 980.375 428.898438 Z M 980.375 428.898438 " fill-opacity="1" fill-rule="nonzero"/></g><path fill="#fef5e4" d="M 854.3125 315.375 C 853.640625 318.667969 852.957031 321.753906 852.292969 324.847656 C 851.152344 330.167969 850.023438 335.496094 848.882812 340.820312 C 847.867188 345.585938 846.84375 350.351562 845.824219 355.117188 C 844.9375 359.261719 844.054688 363.414062 843.171875 367.5625 C 842.351562 371.410156 842.171875 375.21875 844.015625 378.855469 C 844.964844 380.730469 846.390625 381.601562 848.65625 381.757812 C 854.835938 382.1875 858.660156 377.902344 860.453125 373.1875 C 862.496094 367.808594 863.160156 362.167969 864.421875 356.640625 C 865.238281 353.070312 866.144531 349.511719 866.78125 345.910156 C 867.046875 344.40625 867.933594 344.113281 869.039062 344.105469 C 876.046875 344.0625 883.054688 344.070312 890.0625 344.09375 C 891.585938 344.101562 891.929688 344.898438 891.550781 346.296875 C 890.757812 349.222656 890.089844 352.183594 889.507812 355.15625 C 887.46875 365.59375 885.453125 376.023438 879.960938 385.367188 C 876.871094 390.617188 872.777344 394.941406 868.136719 398.847656 C 863.699219 402.582031 858.777344 405.335938 853.109375 406.492188 C 848.59375 407.414062 844.046875 407.953125 839.347656 407.261719 C 836.175781 406.796875 833.085938 406.410156 830.074219 405.179688 C 824.445312 402.875 820.667969 398.777344 818.367188 393.332031 C 816.109375 387.996094 815.054688 382.316406 815.566406 376.539062 C 815.953125 372.164062 816.894531 367.832031 817.730469 363.503906 C 818.65625 358.71875 819.75 353.96875 820.75 349.195312 C 821.75 344.417969 822.707031 339.632812 823.714844 334.859375 C 824.867188 329.410156 826.035156 323.964844 827.226562 318.523438 C 828.417969 313.089844 829.699219 307.679688 830.839844 302.234375 C 832.25 295.53125 833.5 288.792969 834.921875 282.089844 C 836.050781 276.777344 837.507812 271.535156 838.496094 266.199219 C 839.582031 260.34375 841.246094 254.6875 844.273438 249.589844 C 846.582031 245.703125 849.433594 242.128906 852.164062 238.5 C 855.480469 234.09375 859.8125 230.820312 864.847656 228.730469 C 868.296875 227.300781 872.011719 226.351562 875.699219 225.691406 C 878.734375 225.144531 881.917969 225.085938 885.011719 225.246094 C 896.589844 225.851562 905.460938 231.921875 908.5625 244.40625 C 909.753906 249.222656 909.980469 254.050781 909.621094 258.871094 C 909.328125 262.777344 908.269531 266.628906 907.476562 270.488281 C 906.507812 275.199219 905.460938 279.894531 904.457031 284.597656 C 904.296875 285.347656 904.316406 286.164062 904.015625 286.839844 C 903.632812 287.703125 903.164062 288.363281 901.851562 288.335938 C 895.453125 288.214844 889.050781 288.28125 882.648438 288.28125 C 882.246094 288.28125 881.835938 288.253906 881.4375 288.285156 C 878.769531 288.503906 878.785156 288.511719 879.382812 285.867188 C 881.140625 278.035156 883.042969 270.234375 884.542969 262.351562 C 884.980469 260.0625 884.699219 257.398438 883.953125 255.171875 C 882.441406 250.675781 877.960938 249.609375 873.582031 251.523438 C 869.402344 253.351562 867.261719 257.109375 866.109375 261.230469 C 864.613281 266.578125 863.613281 272.066406 862.402344 277.492188 C 861.1875 282.917969 859.914062 288.332031 858.777344 293.777344 C 857.363281 300.550781 856.070312 307.347656 854.710938 314.128906 C 854.636719 314.488281 854.449219 314.824219 854.3125 315.375 Z M 854.3125 315.375 " fill-opacity="1" fill-rule="nonzero"/><g clip-path="url(#9445a7acfb)"><path fill="#fef5e4" d="M 1043.148438 531.300781 C 1040.625 525.746094 1037.972656 520.445312 1035.605469 515.019531 C 1032.199219 507.203125 1028.6875 499.40625 1025.832031 491.382812 C 1024.128906 486.59375 1023.488281 481.40625 1022.570312 476.363281 C 1022.070312 473.617188 1021.597656 470.769531 1021.796875 468.019531 C 1022.285156 461.234375 1023.667969 454.617188 1026.101562 448.203125 C 1028.230469 442.601562 1030.972656 437.332031 1034.816406 432.84375 C 1038.417969 428.640625 1042.441406 424.808594 1047.421875 421.96875 C 1054.761719 417.78125 1062.582031 416.359375 1070.789062 416.933594 C 1077.300781 417.386719 1083.503906 419.128906 1088.191406 424.132812 C 1091.53125 427.699219 1093.492188 432.03125 1094.046875 436.84375 C 1094.558594 441.289062 1094.949219 445.789062 1094.816406 450.246094 C 1094.695312 454.484375 1093.933594 458.71875 1093.183594 462.902344 C 1093.0625 463.589844 1091.59375 464.421875 1090.679688 464.519531 C 1085.605469 465.058594 1080.503906 465.328125 1075.421875 465.820312 C 1072.8125 466.074219 1070.230469 466.652344 1067.621094 466.910156 C 1067.339844 466.941406 1066.527344 465.703125 1066.664062 465.28125 C 1068.378906 460.007812 1068.40625 454.574219 1068.160156 449.15625 C 1068.03125 446.347656 1067.167969 443.574219 1064.515625 441.957031 C 1061.773438 440.289062 1056.914062 441.46875 1054.957031 444.070312 C 1051.277344 448.957031 1049.738281 454.585938 1048.765625 460.523438 C 1047.597656 467.625 1049.78125 474.03125 1052.492188 480.296875 C 1056.125 488.703125 1060.214844 496.910156 1063.808594 505.328125 C 1066.765625 512.253906 1069.425781 519.3125 1071.964844 526.40625 C 1074.589844 533.742188 1075.46875 541.457031 1074.570312 549.117188 C 1073.625 557.164062 1071.238281 564.914062 1067.898438 572.398438 C 1065.183594 578.476562 1061.679688 583.902344 1056.910156 588.441406 C 1051.222656 593.859375 1044.503906 597.457031 1036.597656 598.394531 C 1032.757812 598.847656 1028.867188 599.269531 1025.011719 599.164062 C 1019.203125 599.003906 1013.539062 597.867188 1008.460938 594.78125 C 1003.484375 591.757812 1000.6875 587.144531 999.070312 581.691406 C 997.691406 577.023438 997.046875 572.207031 997.535156 567.410156 C 998.164062 561.234375 999.347656 555.113281 1000.285156 548.96875 C 1000.492188 547.613281 1001.136719 547.128906 1002.617188 547.011719 C 1007.527344 546.628906 1012.417969 545.976562 1017.316406 545.460938 C 1020.234375 545.15625 1023.160156 544.933594 1026.078125 544.636719 C 1027.457031 544.5 1027.089844 545.554688 1026.921875 546.070312 C 1024.949219 551.996094 1024.316406 558.097656 1024.589844 564.289062 C 1024.714844 567.128906 1025.230469 569.960938 1026.996094 572.371094 C 1029.855469 576.269531 1036.148438 575.4375 1039.296875 572.589844 C 1043.511719 568.777344 1045.308594 563.699219 1046.730469 558.484375 C 1047.46875 555.777344 1047.914062 552.910156 1047.933594 550.109375 C 1047.96875 544.777344 1046.5625 539.691406 1044.4375 534.804688 C 1043.96875 533.722656 1043.578125 532.605469 1043.148438 531.300781 Z M 1043.148438 531.300781 " fill-opacity="1" fill-rule="nonzero"/></g><g clip-path="url(#06186954cc)"><path fill="#fef5e4" d="M 776.375 583.96875 C 772.324219 589.175781 767.4375 593.082031 761.46875 595.589844 C 756.859375 597.527344 752.050781 598.617188 747.042969 598.832031 C 744.335938 598.949219 741.628906 599.074219 738.925781 599.246094 C 737.402344 599.339844 737.285156 598.464844 737.53125 597.347656 C 738.84375 591.289062 740.175781 585.234375 741.496094 579.179688 C 741.796875 577.820312 742.046875 576.449219 742.394531 575.101562 C 742.683594 573.992188 743.109375 573.238281 744.625 573.308594 C 751.898438 573.636719 757.808594 568.527344 759.316406 561.339844 C 761.222656 552.246094 763.371094 543.207031 765.34375 534.128906 C 767.414062 524.597656 769.429688 515.054688 771.410156 505.507812 C 773.207031 496.878906 774.863281 488.214844 776.695312 479.59375 C 778.363281 471.742188 780.210938 463.933594 781.925781 456.089844 C 783.980469 446.695312 785.980469 437.285156 788 427.878906 C 788.542969 425.339844 789.191406 422.816406 789.566406 420.253906 C 789.742188 419.0625 790.230469 418.875 791.230469 418.878906 C 799.046875 418.898438 806.863281 418.917969 814.679688 418.867188 C 816.210938 418.859375 816.34375 419.320312 815.941406 420.699219 C 815.128906 423.480469 814.507812 426.320312 813.886719 429.152344 C 811.976562 437.867188 810.097656 446.585938 808.21875 455.308594 C 806.191406 464.710938 804.132812 474.109375 802.164062 483.523438 C 800.355469 492.152344 798.707031 500.816406 796.878906 509.441406 C 795.210938 517.289062 793.359375 525.101562 791.644531 532.941406 C 789.589844 542.339844 787.417969 551.71875 785.636719 561.167969 C 784.484375 567.273438 782.875 573.15625 779.890625 578.609375 C 778.886719 580.4375 777.621094 582.121094 776.375 583.96875 Z M 776.375 583.96875 " fill-opacity="1" fill-rule="nonzero"/></g></svg>